<?xml version="1.0" standalone="no"?>
<!DOCTYPE svg PUBLIC "-//W3C//DTD SVG 20010904//EN"
 "http://www.w3.org/TR/2001/REC-SVG-20010904/DTD/svg10.dtd">
<svg version="1.0" xmlns="http://www.w3.org/2000/svg"
 width="1280.000000pt" height="720.000000pt" viewBox="0 0 1280.000000 720.000000"
 preserveAspectRatio="xMidYMid meet">

<g transform="translate(0.000000,720.000000) scale(0.100000,-0.100000)"
fill="#000000" stroke="none">
<path d="M1142 4938 c-7 -7 -12 -8 -12 -3 0 4 -9 0 -20 -10 -16 -14 -17 -20
-8 -26 10 -7 10 -11 0 -21 -6 -6 -12 -31 -12 -55 0 -40 2 -43 28 -44 25 -1 23
-2 -17 -15 -11 -3 -11 -7 -1 -19 16 -20 41 -20 34 0 -4 8 -1 15 5 15 6 0 11
-5 11 -11 0 -5 5 -7 10 -4 8 5 8 11 1 19 -7 9 -7 16 0 23 6 6 9 30 7 53 -2 33
-7 44 -22 46 -29 4 -42 22 -27 37 11 10 13 9 8 -5 -9 -24 17 -29 32 -6 15 24
1 44 -17 26z"/>
<path d="M713 4820 c-12 -5 -20 -16 -19 -26 3 -20 26 -32 26 -14 0 6 -4 9 -8
6 -5 -3 -9 1 -9 9 0 10 4 12 12 5 7 -5 15 -7 19 -3 4 4 5 1 2 -7 -3 -8 -2 -21
3 -29 8 -12 12 -11 27 4 17 17 17 17 -6 10 -23 -7 -24 -6 -11 9 20 24 -4 48
-36 36z"/>
<path d="M1515 4820 c4 -6 11 -7 17 -4 7 5 8 2 4 -5 -5 -7 -14 -10 -22 -7 -8
3 -14 -1 -14 -9 0 -8 -4 -15 -9 -15 -15 0 -21 -28 -7 -33 8 -3 13 1 12 10 0 9
14 25 33 36 l33 20 -10 -20 c-6 -11 -9 -23 -7 -27 3 -3 -1 -2 -7 4 -18 15 -31
12 -25 -5 4 -8 2 -17 -4 -21 -6 -3 -8 -13 -4 -21 4 -12 2 -13 -7 -5 -10 7 -21
3 -43 -15 -16 -14 -24 -22 -16 -18 9 5 12 3 9 -6 -3 -8 -10 -14 -15 -14 -6 0
-15 -4 -20 -9 -5 -5 -3 -6 5 -2 6 4 12 3 12 -1 0 -5 9 -14 19 -20 16 -10 22
-9 33 4 11 14 11 16 -1 9 -9 -6 -12 -5 -9 5 3 8 11 13 17 11 7 -1 10 2 7 7 -4
5 5 22 19 37 13 14 22 30 20 34 -3 4 2 11 11 14 8 3 12 10 9 16 -3 5 -1 10 4
10 18 0 12 29 -8 40 -25 13 -44 13 -36 0z m-37 -141 c-12 -16 -23 -29 -25 -29
-9 0 -1 19 16 37 11 12 17 24 13 29 -4 4 -1 4 5 0 10 -5 7 -15 -9 -37z"/>
<path d="M726 4731 c9 -17 17 -31 19 -31 8 0 -9 40 -21 51 -10 8 -10 3 2 -20z"/>
<path d="M764 4742 c-13 -32 -10 -60 6 -57 8 2 16 4 18 5 1 2 6 3 11 4 15 2
25 16 12 16 -7 0 -10 3 -8 8 2 4 -4 15 -14 24 -16 15 -18 15 -25 0z m18 -38
c-9 -16 -10 -14 -9 8 1 15 6 23 11 18 4 -4 4 -16 -2 -26z"/>
<path d="M810 4680 c0 -5 5 -10 10 -10 6 0 10 5 10 10 0 6 -4 10 -10 10 -5 0
-10 -4 -10 -10z"/>
<path d="M788 4655 c-3 -14 -1 -28 5 -32 6 -4 7 -1 2 7 -6 10 -4 12 8 7 9 -3
21 1 28 11 8 9 9 14 4 9 -4 -4 -16 0 -25 8 -16 15 -18 14 -22 -10z"/>
<path d="M765 4660 c3 -5 8 -10 11 -10 2 0 4 5 4 10 0 6 -5 10 -11 10 -5 0 -7
-4 -4 -10z"/>
<path d="M1052 4619 c-13 -5 -27 -7 -32 -4 -4 3 -10 -2 -14 -10 -3 -8 -11 -15
-18 -15 -9 0 -9 3 2 11 12 8 9 9 -10 4 -55 -14 -60 -17 -54 -27 4 -7 9 -6 14
1 5 9 20 6 53 -8 26 -11 47 -17 47 -13 0 4 33 6 73 6 83 -2 155 14 122 27 -14
6 -10 7 17 6 21 -1 38 -3 38 -5 0 -2 -13 -8 -30 -13 -16 -6 -30 -14 -30 -18 0
-7 5 -9 47 -13 10 -1 24 -7 31 -14 7 -7 20 -10 29 -7 12 5 14 3 8 -8 -4 -8 -5
-11 -1 -8 4 4 21 -6 38 -22 24 -21 35 -26 45 -18 14 12 8 33 -7 24 -5 -3 -11
-1 -14 4 -8 13 18 21 35 10 8 -5 10 -9 5 -9 -5 0 -2 -8 5 -17 8 -9 9 -14 3
-10 -7 4 -14 1 -17 -7 -6 -15 32 -56 52 -56 7 0 11 -6 8 -14 -3 -8 2 -20 11
-28 11 -9 14 -10 8 0 -4 6 -2 12 3 12 6 0 11 5 11 11 0 5 -6 7 -12 3 -10 -5
-10 -4 -1 6 21 23 34 1 18 -31 -14 -26 -14 -30 0 -35 8 -3 12 -10 9 -15 -3 -5
0 -9 6 -9 7 0 9 -7 6 -17 -4 -10 -4 -14 0 -10 4 4 13 2 21 -4 10 -9 13 -8 13
2 0 11 2 11 10 -1 16 -24 12 -32 -11 -20 -21 12 -42 4 -23 -8 5 -4 11 -25 13
-47 1 -22 7 -42 13 -46 6 -4 7 -12 3 -19 -4 -7 -2 -16 6 -21 12 -8 12 -10 0
-18 -8 -5 -15 -25 -16 -44 -1 -19 -6 -40 -10 -47 -6 -10 -4 -12 8 -7 9 3 19 2
22 -4 4 -5 11 -7 16 -4 5 3 6 -1 2 -10 -5 -14 -8 -14 -15 -3 -6 9 -7 5 -3 -11
5 -16 4 -21 -4 -17 -6 4 -11 14 -11 22 0 22 -18 17 -26 -8 -12 -38 -11 -57 3
-63 15 -5 9 -25 -8 -25 -6 0 -8 4 -5 8 3 5 -1 9 -9 9 -8 0 -12 -4 -9 -8 2 -4
-4 -12 -13 -18 -10 -6 -14 -11 -10 -11 5 0 -5 -12 -22 -26 -30 -25 -30 -26
-16 -55 14 -26 14 -29 0 -29 -9 0 -14 -4 -11 -8 2 -4 -7 -9 -20 -10 -15 -1
-23 2 -19 8 4 6 10 8 15 5 12 -7 30 19 21 33 -5 9 -15 6 -38 -11 -16 -12 -32
-26 -34 -32 -2 -5 -9 -10 -16 -10 -6 0 -15 -4 -20 -9 -4 -5 -3 -6 5 -2 6 4 12
2 12 -5 0 -6 -8 -9 -20 -6 -11 3 -20 1 -20 -5 0 -6 -7 -7 -16 -4 -15 6 -15 4
-3 -10 13 -16 12 -16 -8 -6 -25 14 -48 7 -76 -21 -19 -19 -19 -19 14 -13 31 6
32 5 11 -6 -18 -9 -28 -9 -42 0 -21 13 -53 6 -44 -9 3 -5 10 -7 15 -4 5 4 16
2 24 -2 11 -7 5 -9 -20 -10 -19 -1 -35 3 -35 8 0 19 -26 8 -27 -11 -1 -16 3
-20 22 -17 13 1 27 6 31 10 4 4 17 4 29 1 13 -3 37 2 54 11 17 9 36 13 41 10
6 -3 10 -1 10 4 0 6 9 11 21 11 29 0 59 18 59 36 0 8 -5 12 -10 9 -6 -4 -7
-12 -4 -18 5 -9 4 -9 -6 0 -10 9 -10 15 3 27 14 15 16 14 22 -5 6 -17 9 -19
16 -8 5 8 9 10 9 5 0 -5 8 0 18 10 9 10 26 24 37 30 11 6 20 20 20 30 1 20 24
66 25 49 0 -6 -5 -16 -11 -22 -6 -6 -7 -13 -2 -15 4 -3 20 9 35 27 l28 32 -30
-3 c-16 -2 -32 1 -36 7 -4 7 3 9 19 7 15 -1 26 2 26 7 -1 6 -5 9 -11 7 -5 -1
-7 2 -3 8 3 6 11 8 16 4 5 -3 18 0 27 7 14 11 15 11 5 -1 -7 -8 -13 -19 -13
-25 0 -5 7 -2 15 8 7 11 11 26 8 35 -5 11 -3 13 6 7 10 -6 11 -2 6 15 -5 15
-4 20 4 16 7 -5 8 -1 4 10 -4 11 -3 15 5 10 6 -4 11 1 11 11 0 20 4 39 16 66
4 9 5 27 2 38 -3 12 -2 32 3 45 6 15 6 26 -1 30 -6 3 -8 17 -5 30 4 16 2 23
-5 22 -6 -2 -14 3 -17 11 -3 10 0 12 11 8 11 -4 14 -2 10 9 -7 20 -21 18 -28
-5 -7 -23 -3 -44 10 -53 6 -5 6 -8 -1 -8 -6 0 -17 7 -25 16 -10 12 -10 20 -1
35 15 23 15 32 2 24 -5 -3 -10 -2 -10 3 0 6 7 13 16 16 8 3 12 2 9 -4 -10 -16
1 -11 16 7 12 14 12 16 0 8 -11 -6 -13 -4 -8 9 4 11 3 15 -4 10 -8 -4 -9 1 -4
17 5 20 4 21 -5 9 -10 -12 -11 -11 -7 8 3 13 1 20 -5 16 -5 -3 -8 0 -7 7 4 20
-11 59 -22 59 -5 0 -8 6 -7 13 2 6 -2 11 -9 10 -6 -2 -15 6 -18 17 -4 11 -12
17 -21 13 -20 -8 -17 -23 4 -17 13 5 14 4 3 -4 -14 -10 -48 -5 -57 9 -3 5 2 6
10 3 9 -3 16 -1 16 5 0 6 -4 11 -10 11 -13 0 -13 27 0 35 5 3 7 0 4 -8 -3 -8
1 -17 9 -20 9 -3 14 0 13 9 -2 15 -26 43 -26 30 0 -4 -14 4 -31 18 -17 14 -35
26 -40 26 -6 0 -7 5 -3 12 4 7 3 8 -4 4 -7 -4 -12 -2 -12 5 0 7 -3 9 -7 6 -3
-4 -13 -1 -21 6 -13 9 -14 9 -8 0 5 -9 2 -11 -8 -7 -9 3 -13 10 -10 15 14 23
-84 31 -161 14 -25 -5 -24 -3 10 13 l40 19 -32 0 c-18 0 -33 -4 -33 -9 0 -4
-7 -8 -16 -8 -8 0 -12 5 -9 10 8 13 -51 12 -83 -1z m48 -9 c-8 -5 -26 -9 -40
-9 l-25 1 25 8 c14 4 32 8 40 9 13 1 13 0 0 -9z m10 -20 c-8 -5 -35 -9 -60 -8
l-45 1 45 7 c73 11 78 11 60 0z m95 -10 c-3 -5 -12 -10 -18 -10 -7 0 -6 4 3
10 19 12 23 12 15 0z m100 -9 c-16 -10 -34 -16 -38 -14 -10 6 31 31 53 32 8 0
2 -7 -15 -18z m27 -10 c2 -6 14 -11 28 -13 14 -2 33 -8 43 -14 16 -9 16 -11
-8 -22 -16 -7 -24 -8 -20 -2 4 6 -10 17 -29 25 -20 9 -36 20 -36 25 0 13 17
13 22 1z m79 -78 c13 -16 12 -17 -3 -4 -10 7 -18 15 -18 17 0 8 8 3 21 -13z
m159 -124 c0 -11 5 -29 11 -41 6 -11 8 -23 4 -26 -3 -3 -8 4 -11 16 -4 12 -15
24 -25 27 -15 5 -17 10 -9 26 14 25 30 24 30 -2z m36 -294 c-3 -9 0 -15 9 -15
8 0 15 -4 15 -10 0 -12 -27 -13 -34 -1 -6 10 3 41 11 41 3 0 3 -7 -1 -15z
m-21 -116 c-4 -5 -2 -9 4 -9 6 0 8 -7 5 -15 -10 -24 -20 -17 -22 16 -2 19 1
28 8 24 6 -3 8 -11 5 -16z m-86 -151 c-9 -16 -13 -18 -20 -7 -4 8 -3 19 3 26
16 20 30 5 17 -19z m-45 -40 c-4 -5 -9 -7 -12 -4 -3 3 -12 0 -21 -7 -14 -10
-14 -10 -4 4 13 16 46 23 37 7z m-40 -40 c-5 -8 -1 -9 12 -5 18 7 18 7 0 -8
-15 -11 -22 -12 -27 -3 -9 14 -2 28 12 28 6 0 7 -5 3 -12z m-85 -58 c32 0 24
-6 -19 -14 -25 -4 -31 -3 -20 4 12 8 10 10 -10 10 -20 0 -22 2 -10 10 9 6 18
6 24 0 6 -6 21 -10 35 -10z"/>
<path d="M1551 4354 c0 -11 3 -14 6 -6 3 7 2 16 -1 19 -3 4 -6 -2 -5 -13z"/>
<path d="M900 4571 c0 -7 -5 -9 -12 -5 -7 4 -8 3 -4 -5 4 -6 13 -11 19 -10 36
4 52 -13 23 -24 -11 -4 -13 -1 -9 10 5 13 3 14 -17 3 -12 -7 -20 -8 -16 -2 3
5 -1 12 -9 16 -17 6 -78 -51 -69 -65 3 -5 1 -9 -5 -9 -5 0 -12 6 -14 13 -3 7
-6 4 -6 -6 -1 -11 -6 -15 -13 -11 -6 4 -8 3 -4 -4 3 -6 -4 -19 -17 -29 -13
-10 -21 -25 -19 -33 3 -8 1 -12 -3 -8 -10 10 -48 -39 -51 -66 -4 -40 -16 -66
-28 -59 -6 3 -8 3 -4 -2 4 -4 3 -14 -3 -22 -6 -7 -8 -13 -5 -13 4 0 2 -9 -4
-19 -7 -13 -7 -22 0 -26 5 -3 10 -13 10 -21 0 -8 -3 -13 -7 -11 -13 8 -9 -81
5 -94 10 -11 12 -9 12 9 0 19 2 21 13 10 12 -10 12 -15 0 -26 -17 -17 -17 -37
1 -52 8 -6 12 -19 9 -28 -4 -15 -3 -15 6 -2 14 19 14 50 1 50 -5 0 -10 7 -10
16 0 8 4 12 10 9 11 -7 8 29 -5 79 l-8 29 -13 -24 -13 -24 -1 23 c0 12 4 22 9
22 5 0 14 12 20 28 10 25 11 25 6 2 -2 -14 -1 -31 4 -38 5 -9 8 -2 9 17 0 17
4 41 7 54 5 18 4 19 -5 7 -9 -13 -10 -12 -7 5 2 11 8 19 14 18 6 -1 13 7 16
17 3 11 1 18 -4 14 -9 -5 -10 -3 -13 53 -2 30 -1 31 16 16 22 -20 23 -27 3
-19 -13 4 -14 2 -5 -14 6 -11 13 -20 16 -20 3 0 3 4 0 8 -3 5 4 19 15 30 11
12 15 23 9 23 -5 1 -15 2 -22 3 -6 0 -13 7 -16 15 -3 10 0 12 12 8 9 -4 22 -9
29 -12 6 -3 28 14 47 37 19 23 29 39 22 34 -7 -4 -12 -2 -12 4 0 7 -7 10 -15
6 -8 -3 -15 -1 -15 3 0 5 15 9 34 8 21 -1 33 -5 30 -11 -3 -6 3 -1 14 12 11
12 23 22 26 22 13 0 75 48 69 54 -4 3 -1 6 5 6 7 0 12 -5 12 -11 0 -8 5 -7 16
2 14 11 13 14 -8 25 -16 9 -27 9 -35 2 -9 -7 -17 -7 -28 2 -11 9 -15 9 -15 1z
m-40 -36 c-7 -8 -17 -15 -23 -15 -6 0 -2 7 9 15 25 19 30 19 14 0z m30 -29
c-7 -7 -13 -7 -20 0 -6 6 -3 10 10 10 13 0 16 -4 10 -10z m-35 -17 c2 -8 -5
-15 -15 -15 -10 0 -16 4 -14 8 3 4 -1 8 -8 8 -9 0 -9 3 2 10 19 12 33 8 35
-11z m-74 -51 c0 -10 2 -10 6 0 2 6 9 10 13 7 9 -5 -28 -48 -45 -53 -6 -1 -11
7 -11 18 -1 17 1 18 14 8 13 -11 14 -10 8 10 -5 13 -3 22 3 22 6 0 11 -6 12
-12z m-95 -164 c-4 -9 -9 -15 -11 -12 -3 3 -3 13 1 22 4 9 9 15 11 12 3 -3 3
-13 -1 -22z m-24 -49 c-6 -34 -12 -32 -12 6 0 16 4 28 9 25 4 -3 6 -17 3 -31z"/>
<path d="M1805 4548 c-16 -11 -23 -18 -14 -15 9 3 16 -1 16 -9 0 -10 -7 -12
-21 -8 -12 4 -18 3 -14 -1 3 -4 23 -10 42 -15 29 -6 36 -5 36 7 0 8 5 11 11 7
8 -4 8 0 0 15 -7 11 -16 21 -22 21 -6 0 -7 5 -4 10 8 13 5 12 -30 -12z m40
-27 c-3 -6 -11 -8 -17 -5 -6 4 -5 9 3 15 16 10 23 4 14 -10z"/>
<path d="M441 4551 c-8 -5 -9 -11 -3 -15 5 -3 12 1 16 9 6 17 6 18 -13 6z"/>
<path d="M461 4536 c-8 -10 -22 -14 -35 -11 -12 3 -15 2 -8 -1 6 -3 12 -13 12
-21 0 -14 3 -14 20 2 11 10 23 15 27 12 3 -4 0 -7 -8 -8 -8 0 -6 -4 6 -9 11
-4 30 -6 43 -3 13 3 22 0 22 -7 0 -6 5 -8 11 -5 6 5 4 12 -8 20 -11 9 -22 10
-27 4 -17 -16 -29 -10 -15 9 7 9 9 14 5 10 -5 -4 -14 -1 -21 8 -10 14 -12 14
-24 0z"/>
<path d="M1730 4499 c0 -5 -4 -8 -8 -5 -5 3 -21 -5 -36 -17 l-28 -23 31 -2
c17 -1 31 3 31 9 0 6 -9 8 -22 4 -22 -7 -22 -7 -3 8 17 13 21 13 31 -1 7 -9
16 -12 25 -7 8 4 5 -1 -6 -12 -13 -13 -30 -19 -49 -16 -16 1 -27 2 -25 0 2 -1
13 -9 23 -17 17 -13 18 -13 11 -1 -6 11 -4 13 7 8 9 -3 26 4 39 16 13 12 26
21 29 20 10 -5 40 8 40 18 0 13 -18 11 -23 -3 -4 -8 -6 -7 -6 3 -1 17 -41 34
-41 18 0 -5 4 -9 9 -9 5 0 12 -7 15 -16 5 -13 3 -14 -6 -6 -7 6 -17 12 -23 14
-5 1 -9 9 -7 16 2 6 0 12 -3 12 -3 0 -5 -5 -5 -11z"/>
<path d="M450 4491 c0 -16 38 -33 45 -21 3 5 4 11 1 11 -3 1 -9 2 -13 3 -5 1
-14 5 -20 9 -8 5 -13 4 -13 -2z"/>
<path d="M506 4474 c-7 -19 1 -31 24 -36 8 -2 21 -9 28 -16 8 -7 17 -10 20 -7
4 3 0 10 -7 14 -9 6 -10 11 -2 15 6 4 9 12 6 17 -4 5 2 6 12 2 16 -6 17 -5 3
11 -8 11 -16 14 -18 7 -5 -14 -35 -14 -49 0 -7 7 -12 5 -17 -7z m42 -25 c-7
-5 -14 -4 -16 1 -2 6 -9 7 -14 4 -6 -4 -8 -2 -5 4 4 5 16 8 28 5 16 -4 17 -8
7 -14z"/>
<path d="M596 4455 c-10 -8 -15 -19 -11 -25 5 -8 12 -4 22 10 19 26 14 33 -11
15z"/>
<path d="M3653 4355 c0 -27 2 -38 4 -22 2 15 2 37 0 50 -2 12 -4 0 -4 -28z"/>
<path d="M3670 4353 c0 -57 -9 -93 -22 -93 -5 0 -5 8 1 18 9 18 1 19 -154 21
-103 1 -165 -1 -169 -8 -4 -6 -13 -8 -20 -5 -11 4 -14 -11 -15 -70 -1 -69 1
-76 19 -77 11 -1 25 -2 32 -3 6 -1 13 5 16 13 3 8 1 11 -4 8 -5 -3 -7 17 -6
44 3 42 6 48 18 38 11 -9 45 -10 127 -4 62 4 126 8 142 9 17 1 35 0 40 -3 19
-10 35 -9 28 2 -4 7 0 8 13 3 10 -4 85 -8 166 -9 116 -2 144 -5 136 -14 -15
-18 -2 -16 16 3 9 8 16 11 16 6 0 -5 -7 -15 -15 -22 -18 -15 -20 -46 -3 -56 7
-5 8 -3 3 6 -5 8 -4 11 3 6 6 -4 9 -13 5 -21 -3 -8 -1 -15 5 -15 20 0 39 75
21 85 -5 4 -9 11 -9 16 0 6 5 7 10 4 6 -4 10 8 10 30 l0 36 -182 -1 c-120 -1
-182 2 -181 9 2 6 -4 8 -13 4 -13 -5 -13 -7 -2 -14 10 -7 9 -9 -4 -9 -24 0
-23 9 4 37 19 20 19 23 4 23 -9 0 -14 -4 -11 -10 3 -5 1 -10 -4 -10 -18 0 -12
28 7 33 16 4 16 5 -1 6 -10 0 -16 5 -12 10 3 5 1 12 -5 16 -6 4 -10 -12 -10
-42z m-337 -135 c-4 -48 -10 -68 -19 -68 -20 0 -19 89 1 96 8 4 15 15 15 27 0
11 2 18 4 16 2 -2 2 -34 -1 -71z m24 50 c-3 -8 -6 -5 -6 6 -1 11 2 17 5 13 3
-3 4 -12 1 -19z m263 18 c0 -3 -4 -8 -10 -11 -5 -3 -10 -1 -10 4 0 6 5 11 10
11 6 0 10 -2 10 -4z m140 -11 c0 -18 -15 -33 -28 -28 -13 6 -13 8 4 14 13 5 8
7 -18 7 -21 -1 -35 -5 -32 -10 3 -4 3 -8 0 -8 -17 0 -13 22 5 28 19 8 69 5 69
-3z m300 -80 c-10 -12 -10 -15 0 -15 8 0 11 -2 8 -5 -3 -3 -13 -3 -22 1 -13 5
-14 9 -5 20 6 8 16 14 21 14 6 0 5 -7 -2 -15z"/>
<path d="M3313 4200 c0 -25 2 -35 4 -22 2 12 2 32 0 45 -2 12 -4 2 -4 -23z"/>
<path d="M4457 4384 c-4 -4 -7 -17 -7 -28 0 -16 2 -18 9 -7 12 19 45 6 37 -15
-3 -9 -2 -12 5 -9 6 4 8 13 5 20 -2 7 1 18 7 25 9 10 9 11 0 6 -7 -4 -13 -2
-13 3 0 6 -5 11 -11 11 -5 0 -7 -4 -4 -10 3 -5 2 -10 -4 -10 -5 0 -11 5 -13
11 -2 5 -7 7 -11 3z"/>
<path d="M4805 4380 c3 -4 -2 -10 -10 -14 -21 -8 -19 -21 8 -35 21 -11 21 -11
0 -6 -12 3 -25 0 -29 -6 -4 -7 -3 -10 2 -7 5 3 18 2 29 -3 19 -7 19 -8 -2 -8
-12 -1 -25 -6 -29 -12 -4 -8 3 -9 25 -4 20 4 31 3 31 -4 0 -7 -17 -9 -46 -6
-38 4 -47 1 -50 -13 -4 -15 -16 -17 -94 -14 -59 2 -90 0 -90 -7 0 -7 33 -11
91 -11 82 0 91 2 96 20 4 15 9 17 23 10 9 -5 20 -6 24 -3 3 3 6 1 6 -5 0 -7 5
-12 11 -12 5 0 7 5 4 10 -11 17 7 11 21 -7 7 -10 16 -15 20 -11 4 4 1 14 -6
23 -7 8 -9 15 -6 15 11 0 36 -27 30 -33 -3 -2 21 -4 53 -3 32 0 59 6 60 11 2
6 -17 9 -46 7 -34 -3 -52 1 -58 10 -4 8 -16 18 -26 21 -15 6 -18 16 -15 53 2
39 0 47 -15 50 -9 1 -15 -1 -12 -6z m21 -25 c-3 -9 -10 -13 -16 -10 -6 4 -5
11 3 20 15 16 22 11 13 -10z"/>
<path d="M2566 4355 c-3 -8 -11 -15 -18 -15 -9 0 -9 3 2 11 12 8 10 9 -10 7
-14 -2 -24 -9 -22 -16 1 -9 -6 -10 -24 -6 -21 5 -31 1 -50 -21 -29 -34 -30
-39 -6 -26 16 8 18 3 20 -51 4 -93 3 -95 -73 -90 -64 4 -65 4 -65 -21 0 -22 5
-25 45 -29 37 -3 48 1 60 17 13 19 13 19 9 -5 -2 -14 -2 -19 2 -12 7 14 34 16
34 2 0 -5 3 -9 8 -9 4 1 14 1 22 0 13 -1 13 -3 0 -10 -8 -6 -18 -7 -23 -4 -11
6 2 -69 14 -82 15 -15 27 7 30 55 2 25 9 51 15 58 17 16 25 15 18 -2 -3 -8 0
-17 7 -22 8 -4 10 -3 5 4 -5 8 5 12 33 12 37 0 41 2 41 25 0 22 -4 25 -39 25
-22 0 -42 -5 -44 -12 -4 -9 -6 -8 -6 2 -1 10 -10 5 -27 -15 -18 -21 -23 -24
-18 -10 13 36 17 168 5 161 -7 -4 -11 1 -11 13 0 11 4 23 10 26 6 3 7 -1 4
-12 -5 -17 -5 -17 6 0 6 10 23 22 36 27 13 5 24 16 24 25 0 19 -6 19 -14 0z
m-86 -37 c0 6 5 12 12 12 9 0 9 -3 1 -11 -6 -6 -9 -18 -6 -25 3 -8 0 -14 -7
-14 -6 0 -9 4 -5 9 3 5 1 12 -5 16 -5 3 -10 12 -10 18 0 7 4 6 10 -3 6 -10 10
-11 10 -2z m7 -68 c-1 -21 -10 -18 -13 5 -1 8 2 15 6 15 5 0 8 -9 7 -20z m-12
-111 c-4 -5 -1 -9 5 -9 6 0 8 -5 4 -12 -6 -9 -9 -9 -12 0 -2 7 -7 10 -12 7 -4
-3 -6 4 -3 15 3 11 9 17 14 14 5 -3 7 -10 4 -15z"/>
<path d="M5739 4352 c0 -11 -2 -12 -6 -4 -13 33 -18 2 -17 -111 0 -99 -3 -124
-15 -135 -14 -11 -14 -12 5 -7 16 4 20 0 20 -20 0 -14 -4 -25 -9 -25 -5 0 -7
7 -3 15 7 18 -5 20 -23 3 -10 -11 -11 -10 -6 3 4 10 2 20 -4 24 -6 3 -11 -1
-11 -9 0 -9 -5 -16 -11 -16 -5 0 -7 5 -3 12 5 8 2 9 -12 4 -38 -15 -39 -13
-36 80 3 89 3 91 -20 90 -40 -2 -50 -28 -47 -123 3 -86 3 -87 -24 -96 -15 -5
-27 -13 -27 -19 0 -5 6 -8 13 -5 6 2 20 0 29 -4 11 -6 19 -5 24 3 5 8 10 6 15
-8 6 -16 8 -15 8 9 1 27 -22 39 -32 17 -3 -6 -4 -5 -3 2 2 7 15 12 29 11 24
-1 25 0 16 26 -6 16 -8 61 -6 102 l3 74 2 -81 c1 -44 5 -84 9 -88 10 -10 12
-56 1 -50 -4 3 -8 1 -8 -5 0 -12 57 -8 68 4 4 5 -1 5 -10 2 -10 -3 -20 -2 -23
2 -3 5 10 8 28 7 17 -2 35 2 39 8 4 6 11 0 17 -14 8 -21 10 -22 10 -6 1 20 1
20 16 0 11 -15 14 -48 13 -149 l-2 -130 -6 135 c-3 74 -8 128 -12 120 -8 -17
-16 -249 -8 -248 3 0 7 -1 10 -2 37 -14 38 -12 36 129 -1 93 -5 140 -13 149
-18 19 -16 42 3 42 12 0 15 7 11 25 -3 17 0 24 7 22 15 -6 8 -39 -12 -54 -25
-20 -6 -15 30 7 18 11 41 20 51 20 10 0 16 4 12 10 -3 5 10 8 32 6 20 -1 39
-8 41 -14 2 -6 11 -8 20 -5 11 3 13 2 5 -4 -7 -5 -14 -41 -16 -88 l-3 -80 -2
82 c-1 46 -7 85 -13 89 -7 4 -10 -26 -8 -100 2 -58 0 -109 -4 -112 -10 -10 -9
-26 2 -20 5 3 14 0 20 -8 9 -11 9 -15 -1 -18 -7 -3 -20 5 -30 16 -10 12 -17
16 -18 10 0 -7 -10 -14 -22 -17 -37 -10 -4 -37 42 -34 21 1 36 5 34 8 -2 4 4
9 15 12 16 4 18 18 20 137 2 101 -1 135 -11 141 -10 7 -10 9 0 9 6 0 12 4 12
10 0 5 -7 7 -15 4 -11 -5 -15 1 -14 22 1 17 3 22 6 12 5 -21 19 -23 29 -6 4 6
3 8 -3 5 -6 -4 -14 0 -17 9 -3 8 -10 13 -15 9 -5 -3 -12 -1 -15 4 -8 13 -66
-10 -66 -26 0 -7 -9 -10 -21 -8 -12 2 -29 0 -39 -5 -28 -15 -35 6 -35 107 0
50 -3 89 -7 86 -12 -7 -9 -178 3 -190 8 -8 8 -13 0 -17 -14 -9 -12 -18 -20
100 -6 102 -1 124 30 124 16 0 3 13 -16 16 -8 1 -15 -5 -16 -14z m-172 -234
c-2 -24 -4 -5 -4 42 0 47 2 66 4 43 2 -24 2 -62 0 -85z m351 55 c-1 -5 4 -21
10 -36 16 -37 15 -39 -7 -28 -26 14 -38 45 -14 37 17 -6 17 -5 0 8 -17 13 -15
17 11 25 1 1 1 -2 0 -6z m-35 -54 c-5 -5 -9 3 -11 19 -1 24 0 25 9 9 7 -11 7
-23 2 -28z m-131 -28 c-5 -12 -8 -11 -10 7 -2 12 -8 22 -13 22 -5 0 -9 8 -9
18 0 14 4 13 19 -7 11 -14 16 -32 13 -40z m93 38 l20 -9 -20 2 c-11 2 -25 -1
-32 -5 -6 -4 -15 -2 -19 4 -4 8 -3 9 4 5 7 -4 12 -2 12 3 0 13 8 13 35 0z m-6
-23 c-2 -2 -15 -9 -29 -15 -24 -11 -24 -11 -6 3 16 13 49 24 35 12z m-173 -51
c17 -13 16 -14 -13 -4 -34 11 -42 19 -20 19 7 0 22 -7 33 -15z m284 -166 c0
-11 -4 -17 -10 -14 -5 3 -10 13 -10 21 0 8 5 14 10 14 6 0 10 -9 10 -21z m-53
-65 c-3 -3 -12 -4 -19 -1 -8 3 -5 6 6 6 11 1 17 -2 13 -5z"/>
<path d="M2586 4334 c-9 -23 -8 -24 18 -22 14 1 22 6 20 10 -3 5 -10 5 -16 2
-7 -5 -9 -1 -5 9 3 10 2 17 -2 17 -5 0 -12 -7 -15 -16z"/>
<path d="M4470 4340 c0 -5 5 -10 10 -10 6 0 10 5 10 10 0 6 -4 10 -10 10 -5 0
-10 -4 -10 -10z"/>
<path d="M2398 4333 c-26 -4 -41 -33 -18 -33 6 0 10 5 10 10 0 6 5 10 11 10 8
0 7 -5 -1 -15 -14 -16 -49 -11 -62 9 -6 8 -8 7 -8 -1 0 -15 40 -38 59 -34 8 1
22 12 32 24 19 23 24 38 12 36 -5 -1 -20 -4 -35 -6z"/>
<path d="M2785 4330 c-3 -5 -5 -10 -3 -11 31 -7 48 -7 48 2 0 5 -4 7 -10 4 -5
-3 -10 -1 -10 4 0 14 -17 14 -25 1z"/>
<path d="M5311 4260 c-1 -47 -6 -103 -11 -125 -11 -48 -7 -54 20 -30 16 15 23
16 33 6 9 -10 8 -11 -5 -6 -11 4 -18 2 -18 -4 0 -6 9 -11 20 -11 11 0 20 5 20
12 0 6 2 9 5 6 3 -3 3 -12 0 -21 -6 -15 -28 -17 -41 -4 -13 13 -23 7 -18 -10
4 -12 3 -14 -3 -6 -5 7 -7 -59 -5 -153 l4 -164 -31 -6 c-35 -7 -41 -28 -11
-44 14 -7 20 -7 20 0 0 5 -4 10 -10 10 -5 0 -10 5 -10 10 0 7 6 7 20 0 11 -6
17 -16 14 -25 -8 -20 -5 -19 58 11 29 14 43 24 31 21 -13 -3 -23 -1 -23 5 0 6
-7 8 -15 4 -8 -3 -15 -1 -15 4 0 6 6 10 13 10 9 0 12 30 11 119 -1 65 -4 124
-8 129 -3 6 -2 13 4 17 6 4 8 10 5 15 -13 21 7 35 48 34 41 -1 44 1 44 27 0
16 -4 26 -8 23 -4 -2 -9 1 -11 7 -3 8 -10 6 -21 -5 -15 -16 -18 -16 -23 -2 -3
9 -10 13 -15 10 -5 -3 -9 2 -9 12 0 12 -4 14 -12 7 -23 -17 -45 -22 -45 -8 0
7 8 10 18 8 9 -3 20 1 24 7 10 16 12 179 3 173 -5 -2 -8 1 -8 8 0 9 -3 9 -14
0 -11 -9 -15 -9 -19 1 -3 7 -6 -25 -6 -72z m123 -174 c-3 -9 -10 -16 -15 -16
-6 0 -5 9 1 21 13 24 24 20 14 -5z m-34 -6 c0 -5 -5 -10 -11 -10 -5 0 -7 5 -4
10 3 6 8 10 11 10 2 0 4 -4 4 -10z m-55 -33 c-10 -8 -15 -19 -11 -25 4 -7 3
-12 -2 -12 -18 0 -21 29 -4 39 25 15 39 13 17 -2z m-28 -313 c-3 -3 -12 -4
-19 -1 -8 3 -5 6 6 6 11 1 17 -2 13 -5z m18 -24 c3 -5 1 -10 -4 -10 -6 0 -11
5 -11 10 0 6 2 10 4 10 3 0 8 -4 11 -10z"/>
<path d="M4452 4313 c5 -34 -9 -40 -87 -35 -76 4 -77 4 -73 -19 3 -23 6 -24
91 -24 74 0 90 -3 98 -18 7 -11 7 -17 -1 -17 -5 0 -10 -7 -10 -15 0 -13 3 -13
20 -3 21 13 27 38 10 38 -5 0 -10 5 -10 12 0 6 3 8 7 5 3 -4 12 -2 20 4 10 9
13 8 13 -2 0 -11 2 -11 10 1 5 8 9 22 9 30 0 10 -3 8 -9 -5 -6 -13 -9 -15 -9
-5 -1 13 -2 13 -12 0 -9 -12 -10 -11 -6 8 3 12 1 22 -5 22 -5 0 -7 4 -4 9 3 4
-6 13 -20 20 -33 15 -36 14 -32 -6z m51 -53 c3 -11 1 -18 -4 -14 -5 3 -9 12
-9 20 0 20 7 17 13 -6z m-101 -9 c4 -3 -18 -6 -48 -6 -33 0 -54 4 -54 11 0 12
88 8 102 -5z m38 5 c0 -3 -4 -8 -10 -11 -5 -3 -10 -1 -10 4 0 6 5 11 10 11 6
0 10 -2 10 -4z"/>
<path d="M2540 4310 c0 -5 7 -10 15 -10 8 0 15 5 15 10 0 6 -7 10 -15 10 -8 0
-15 -4 -15 -10z"/>
<path d="M2834 4309 c-3 -6 -19 -9 -35 -5 -21 4 -29 2 -29 -9 0 -9 6 -12 17
-8 12 5 14 3 8 -8 -7 -11 -5 -11 10 1 17 14 18 13 12 -2 -4 -12 -2 -18 8 -18
8 0 15 -4 15 -10 0 -5 5 -10 12 -10 6 0 3 9 -7 20 -17 18 -17 20 -2 14 20 -7
22 6 5 25 -11 11 -9 11 7 1 13 -8 20 -23 21 -45 0 -19 -3 -32 -8 -29 -17 10
-7 -3 17 -24 l25 -22 20 22 c23 25 26 39 8 36 -7 -2 -12 4 -13 12 0 9 -8 14
-18 12 -9 -2 -17 3 -17 11 0 20 -47 50 -56 36z m86 -94 c-6 -8 -18 -11 -26 -8
-10 4 -11 9 -4 18 5 6 6 15 2 20 -4 4 3 2 16 -4 18 -10 21 -15 12 -26z"/>
<path d="M2900 4219 c0 -5 5 -7 10 -4 6 3 10 8 10 11 0 2 -4 4 -10 4 -5 0 -10
-5 -10 -11z"/>
<path d="M3049 4281 c11 -7 10 -10 -5 -14 -17 -4 -17 -5 2 -6 11 0 25 -6 30
-11 8 -8 15 -6 23 4 10 12 9 13 -10 9 -14 -4 -20 -2 -16 4 4 6 0 14 -9 17 -23
9 -31 7 -15 -3z"/>
<path d="M6981 4281 c-8 -5 -21 -8 -30 -6 -9 1 -22 -3 -29 -11 -10 -10 -10
-14 -1 -14 7 0 9 -3 6 -6 -4 -4 -13 -1 -22 6 -12 10 -20 9 -40 -4 -14 -9 -25
-21 -25 -26 0 -6 -6 -9 -12 -7 -7 1 -12 -6 -10 -15 1 -9 -3 -20 -9 -24 -8 -5
-9 -3 -4 6 5 8 4 11 -3 7 -5 -4 -8 -26 -6 -50 3 -36 2 -38 -5 -12 l-9 30 -2
-30 c-6 -69 -6 -85 1 -85 4 0 10 6 12 13 4 7 6 6 6 -5 1 -9 -5 -19 -11 -21
-10 -4 -9 -8 2 -16 8 -6 11 -11 6 -11 -6 0 -1 -7 10 -15 10 -8 15 -15 11 -15
-13 0 20 -30 34 -30 9 0 8 4 -2 13 -8 6 -21 20 -28 29 -10 14 -10 16 3 14 21
-3 57 -37 50 -47 -7 -12 17 -54 25 -43 12 18 44 12 70 -13 14 -14 20 -22 14
-19 -7 4 -13 2 -13 -4 0 -7 8 -9 21 -5 13 5 19 3 15 -3 -3 -5 0 -15 8 -21 11
-9 15 -9 19 1 2 7 4 -17 3 -53 -1 -61 -2 -65 -21 -61 -11 3 -24 10 -28 16 -6
8 -10 7 -14 -1 -5 -15 -43 -18 -43 -4 0 5 -12 7 -27 5 -15 -3 -24 -2 -20 2 5
5 -83 54 -97 54 -4 0 1 -160 5 -164 2 -2 11 3 19 12 13 14 13 15 -1 10 -9 -4
-16 -1 -16 7 0 8 7 11 16 7 19 -7 51 -41 51 -54 0 -5 3 -7 8 -4 4 2 26 1 50
-4 23 -4 42 -4 42 1 0 4 -12 10 -27 12 -18 3 -12 4 17 5 33 1 41 -1 30 -8 -11
-7 -2 -9 32 -8 28 1 45 5 41 11 -4 6 4 7 21 3 14 -3 26 -2 26 3 0 5 -9 11 -21
14 -24 6 -17 28 9 26 13 -1 13 -2 -3 -6 -17 -5 -15 -7 10 -18 35 -14 56 -9 48
11 -4 12 -8 12 -22 2 -14 -12 -14 -11 -3 4 11 14 17 15 33 5 16 -10 23 -8 44
16 14 15 21 27 16 27 -5 0 -9 9 -8 19 0 11 5 17 9 15 5 -3 5 -10 2 -16 -4 -7
-2 -8 5 -4 6 4 9 12 6 17 -4 5 1 9 9 9 19 0 22 36 4 43 -10 3 -10 7 -1 18 14
17 13 59 0 59 -5 0 -7 -6 -4 -13 3 -8 1 -20 -3 -28 -7 -10 -9 -7 -8 11 1 14 6
31 12 38 7 10 5 17 -7 23 -9 6 -17 16 -17 23 0 16 -52 54 -67 49 -7 -2 -9 -11
-6 -19 3 -8 1 -14 -5 -14 -12 0 -11 18 2 40 5 8 6 12 1 8 -4 -4 -14 0 -23 8
-10 11 -25 14 -46 10 -22 -4 -27 -3 -16 4 8 5 11 10 5 11 -5 1 -14 3 -20 4 -5
2 -16 3 -23 4 -7 0 -10 5 -7 11 3 5 -6 12 -19 16 -22 5 -24 9 -15 26 6 11 7
18 2 15 -5 -3 -10 3 -10 14 -1 10 3 19 8 19 6 0 7 -6 3 -12 -4 -7 6 -1 22 13
23 20 39 25 74 24 25 -1 54 -6 65 -12 11 -6 31 -13 45 -14 14 -2 28 -8 32 -14
5 -6 8 -4 8 6 0 8 -5 20 -12 27 -9 9 -9 12 0 12 13 0 17 77 4 96 -8 12 -52 29
-52 20 0 -3 12 -12 28 -20 18 -10 22 -15 10 -16 -9 0 -19 4 -22 9 -6 9 -32 8
-115 -5 -29 -5 -42 -4 -38 3 4 6 19 9 34 6 26 -3 26 -3 6 6 -13 6 -23 13 -23
16 0 4 5 3 11 -1 18 -10 99 -13 99 -3 0 5 -10 9 -22 10 -13 1 -45 2 -71 3 -26
2 -42 -1 -35 -5 9 -6 7 -10 -7 -14 -11 -4 -30 -11 -42 -15 -14 -6 -25 -5 -28
1 -4 5 -3 9 2 8 15 -2 53 13 53 22 0 11 -1 11 -19 0z m-101 -73 c0 -5 -4 -7
-9 -4 -5 3 -11 -1 -15 -9 -7 -19 -22 -19 -30 0 -3 8 -2 14 2 14 20 -3 33 2 27
11 -3 6 1 7 9 4 9 -3 16 -10 16 -16z m-3 -31 c0 -8 -6 -14 -14 -14 -9 0 -10 4
-2 14 6 7 12 13 14 13 1 0 2 -6 2 -13z m123 -25 c0 -15 -11 -21 -27 -15 -12 5
-12 7 -1 14 17 11 28 11 28 1z m194 -11 c3 -4 -6 -6 -19 -3 -14 2 -25 6 -25 8
0 8 39 4 44 -5z m-195 -124 c8 -10 7 -14 -4 -14 -8 0 -12 4 -9 8 2 4 -2 10 -8
12 -8 4 -9 6 -2 6 6 1 17 -5 23 -12z m192 -79 c6 1 8 -2 4 -8 -8 -13 -42 8
-42 28 0 11 4 10 14 -4 8 -11 19 -18 24 -16z m-34 -14 c-3 -3 -12 -4 -19 -1
-8 3 -5 6 6 6 11 1 17 -2 13 -5z m-151 -21 c-5 -12 6 -18 27 -14 4 1 3 -8 -3
-19 -6 -11 -13 -20 -16 -20 -3 0 -2 4 1 10 3 5 -6 21 -22 34 -27 24 -27 25 -5
23 14 -1 21 -6 18 -14z m201 -40 c-3 -10 -5 -4 -5 12 0 17 2 24 5 18 2 -7 2
-21 0 -30z m0 -65 c-3 -8 -6 -5 -6 6 -1 11 2 17 5 13 3 -3 4 -12 1 -19z m-397
-23 c11 -13 10 -14 -4 -9 -9 3 -16 10 -16 15 0 13 6 11 20 -6z m425 -5 c3 -5
1 -10 -4 -10 -6 0 -11 5 -11 10 0 6 2 10 4 10 3 0 8 -4 11 -10z m-327 -83 c2
-20 -1 -44 -6 -54 -7 -12 -8 -2 -5 31 4 35 2 51 -8 58 -12 8 -11 9 1 5 9 -2
16 -18 18 -40z m77 23 c-3 -5 -12 -7 -20 -3 -21 7 -19 13 6 13 11 0 18 -4 14
-10z m-45 -20 c0 12 3 11 11 -2 10 -18 49 -24 62 -11 4 3 2 12 -4 20 -9 10 -7
13 9 13 16 0 20 -4 15 -17 -4 -10 -11 -21 -17 -25 -18 -12 -64 -9 -69 5 -3 7
-6 5 -6 -5 -1 -14 7 -18 32 -18 36 0 66 -15 53 -27 -5 -4 -11 -2 -13 5 -3 7
-22 12 -44 12 -24 0 -39 5 -39 13 0 6 -3 23 -5 37 -5 22 -4 22 4 5 7 -14 10
-15 11 -5z m-54 -37 c-3 -4 -16 -1 -28 5 l-23 12 23 -6 c12 -3 22 -2 21 3 -3
18 4 27 8 10 3 -10 2 -21 -1 -24z"/>
<path d="M11336 4283 c-3 -4 0 -13 7 -21 9 -12 6 -12 -14 1 -23 16 -29 16 -61
3 -20 -9 -38 -22 -41 -31 -4 -8 -12 -15 -20 -15 -14 0 -58 -53 -61 -73 -1 -7
-5 -17 -9 -24 -4 -6 -2 -15 4 -18 14 -10 18 -4 21 32 1 18 5 30 9 27 8 -5 -4
-62 -19 -91 -14 -25 -15 -33 -4 -33 11 0 32 51 32 78 0 13 4 21 9 18 10 -7 3
-44 -11 -63 -12 -15 0 -56 13 -48 5 4 9 1 9 -4 0 -17 -18 -13 -29 7 -6 10 -11
12 -11 4 0 -7 -5 -10 -10 -7 -6 4 -5 -6 2 -22 16 -37 15 -36 28 -28 8 5 5 12
-7 22 -17 13 -17 14 2 5 11 -5 37 -8 57 -6 20 3 40 0 43 -6 4 -7 -2 -9 -19 -4
-17 4 -26 2 -26 -6 0 -6 4 -9 9 -5 5 3 12 1 16 -5 10 -16 -22 -12 -39 5 -10
10 -17 12 -21 4 -4 -5 -5 -11 -4 -12 33 -17 43 -26 46 -38 3 -8 0 -7 -7 4 -6
9 -18 17 -27 17 -11 0 -9 -5 8 -19 25 -20 51 -18 43 4 -3 7 1 15 9 18 11 4 13
0 9 -16 -3 -12 -10 -25 -15 -28 -5 -4 5 -10 24 -14 18 -4 39 -14 47 -22 12
-12 16 -11 27 3 11 16 15 14 44 -13 26 -25 29 -32 16 -37 -9 -3 -14 -2 -10 3
6 11 -21 41 -36 41 -6 0 -1 -13 10 -29 12 -16 21 -36 21 -43 0 -22 12 -29 27
-16 11 8 12 7 7 -6 -4 -10 -13 -15 -20 -12 -7 3 -20 -2 -29 -10 -8 -8 -19 -13
-24 -9 -5 3 -13 -5 -17 -17 -4 -13 -2 -24 4 -26 6 -2 8 -10 5 -19 -4 -11 -2
-14 5 -9 7 4 12 16 12 27 0 10 5 19 10 19 15 0 12 -15 -9 -41 -16 -20 -21 -22
-35 -10 -13 11 -20 11 -28 3 -7 -7 -19 -12 -27 -11 -11 0 -12 2 -3 6 6 2 12 9
12 14 0 6 -5 7 -12 3 -6 -4 -26 -8 -43 -9 -24 0 -31 4 -33 20 0 11 2 15 6 9
19 -29 92 -17 92 16 0 13 1 13 10 0 9 -13 11 -13 20 0 5 8 10 20 10 25 0 6 -5
3 -10 -5 -9 -13 -11 -13 -20 0 -9 13 -10 13 -10 0 0 -13 -1 -13 -10 0 -5 8
-10 11 -10 6 0 -6 -5 -5 -12 2 -15 15 -28 16 -28 2 0 -5 11 -12 25 -16 14 -3
25 -10 25 -14 0 -10 -38 -1 -46 12 -3 5 -11 4 -19 -2 -9 -8 -15 -8 -20 0 -3 5
1 10 9 10 23 0 19 17 -6 31 -22 12 -22 11 -8 -6 14 -17 14 -18 -10 -5 -14 7
-27 12 -30 11 -2 -1 -6 3 -8 11 -3 10 -2 10 6 -1 6 -8 12 -9 16 -3 4 8 -13 22
-28 22 -1 0 -2 -35 -1 -77 1 -55 6 -79 16 -84 32 -16 98 -31 108 -24 7 4 18 1
26 -5 10 -8 15 -9 15 -2 0 7 17 9 43 7 l42 -4 -42 15 c-24 9 -43 20 -43 25 0
13 18 11 23 -3 3 -10 9 -10 26 0 11 6 35 13 53 13 30 2 30 2 6 6 -25 4 -26 5
-10 24 9 10 20 19 25 19 5 0 4 -6 -2 -14 -10 -11 -8 -15 6 -19 42 -11 100 4
88 23 -3 5 -1 11 5 15 5 3 10 11 10 16 0 6 -4 8 -8 5 -5 -3 -9 1 -9 7 0 7 10
13 21 14 12 1 15 -1 8 -4 -10 -4 -10 -8 -1 -19 7 -8 7 -14 2 -14 -6 0 -10 -8
-9 -17 0 -10 -3 -19 -9 -21 -5 -2 -17 -10 -26 -18 -10 -9 -18 -11 -20 -5 -2 6
-14 8 -26 5 -13 -4 -20 -10 -17 -15 3 -5 -7 -14 -22 -19 -15 -6 -24 -13 -21
-16 3 -3 15 -1 26 6 12 6 21 7 21 3 0 -4 5 0 11 11 8 12 14 15 18 7 5 -7 14
-4 29 9 12 12 22 18 22 14 0 -3 7 -1 15 6 8 7 12 16 9 21 -3 5 2 9 10 9 15 0
38 31 35 47 -1 4 0 13 1 18 10 35 4 101 -10 112 -13 11 -13 12 0 13 9 0 -8 22
-39 50 -29 28 -57 47 -62 44 -5 -3 -9 0 -9 6 0 6 -4 9 -9 6 -5 -4 -12 0 -14 6
-4 9 -6 9 -6 -1 -1 -11 -5 -10 -15 5 -13 17 -18 18 -45 7 -22 -8 -33 -8 -38
-1 -3 6 -2 8 3 5 6 -3 16 -2 24 4 11 6 11 9 3 10 -28 3 -32 4 -40 13 -5 5 -3
6 5 2 6 -4 12 -2 12 3 0 6 -4 11 -10 11 -5 0 -10 11 -10 24 0 14 -4 28 -10 31
-5 3 -10 11 -10 17 0 7 4 7 14 -1 10 -9 16 -8 26 4 7 9 8 15 2 15 -6 0 -12 -4
-14 -9 -1 -5 -8 -3 -15 4 -9 10 2 12 55 10 37 -1 76 -5 87 -9 17 -7 18 -6 5 4
-13 10 -13 11 3 6 33 -10 47 4 47 49 0 45 -10 55 -56 55 -13 0 -24 -5 -24 -12
0 -6 -6 -3 -14 8 -8 10 -10 21 -5 25 5 3 -13 6 -40 6 -27 1 -52 -1 -55 -4z
m44 -7 c0 -11 -19 -15 -25 -6 -3 5 1 10 9 10 9 0 16 -2 16 -4z m-64 -20 c12
-13 11 -14 -11 -12 -14 1 -28 6 -33 11 -4 4 -1 5 6 1 6 -4 12 -2 12 3 0 15 9
14 26 -3z m171 -12 c-3 -3 -12 -4 -19 -1 -8 3 -5 6 6 6 11 1 17 -2 13 -5z
m-282 -74 c-11 -17 -23 -1 -18 21 5 19 7 19 15 5 5 -9 6 -21 3 -26z m58 9 c3
-13 1 -19 -6 -16 -15 5 -22 37 -9 37 5 0 12 -9 15 -21z m64 -95 c1 -20 0 -22
-4 -6 -2 12 -9 22 -14 22 -5 0 -9 5 -9 11 0 25 25 0 27 -27z m-17 -17 c0 -8 7
-20 15 -27 8 -7 15 -18 15 -24 -1 -16 -40 34 -40 51 0 8 -4 12 -8 9 -4 -2 -9
4 -9 15 -2 17 0 17 13 5 8 -8 14 -21 14 -29z m-110 -17 c0 -5 -2 -10 -4 -10
-3 0 -8 5 -11 10 -3 6 -1 10 4 10 6 0 11 -4 11 -10z m115 -42 c5 -4 1 -6 -10
-6 -15 2 -20 10 -21 32 -1 31 -1 31 10 6 6 -14 15 -28 21 -32z m172 -70 c-6
-3 -17 -4 -24 -1 -12 5 -12 7 -1 14 12 8 4 13 -14 10 -10 -1 -10 13 -1 23 4 3
17 -4 28 -16 13 -14 18 -26 12 -30z m32 19 c11 -14 -3 -37 -23 -37 -5 0 -1 6
9 14 18 13 18 13 -1 24 -10 6 -14 12 -8 12 6 0 16 -6 23 -13z m21 -57 c-12 -7
-12 -12 -2 -22 9 -9 12 -9 12 2 0 9 7 7 20 -8 27 -28 26 -40 -2 -16 -19 17
-21 17 -15 2 4 -10 2 -18 -3 -18 -6 0 -10 6 -10 13 0 9 -3 8 -9 -2 -6 -9 -8
-2 -6 20 2 19 3 41 4 49 1 11 4 11 13 2 10 -10 10 -15 -2 -22z m-102 -1 c3
-12 2 -12 -6 0 -8 12 -14 12 -25 3 -7 -7 -16 -10 -18 -8 -2 2 -17 6 -34 10
-21 5 -26 4 -15 -3 8 -6 11 -13 8 -17 -4 -3 -14 1 -22 9 -20 19 -9 24 58 22
34 -1 51 -6 54 -16z m142 0 c0 -6 -4 -7 -10 -4 -5 3 -10 11 -10 16 0 6 5 7 10
4 6 -3 10 -11 10 -16z m-146 -35 c5 -14 4 -15 -9 -4 -17 14 -19 20 -6 20 5 0
12 -7 15 -16z m-6 -58 c-7 -8 -15 -12 -17 -11 -5 6 10 25 20 25 5 0 4 -6 -3
-14z m-13 -55 c3 -5 1 -12 -5 -16 -5 -3 -10 1 -10 9 0 18 6 21 15 7z m-155
-47 c0 -2 -7 -4 -15 -4 -8 0 -15 4 -15 10 0 5 7 7 15 4 8 -4 15 -8 15 -10z
m-75 -34 c-3 -5 -14 -10 -23 -10 -15 0 -15 2 -2 10 20 13 33 13 25 0z m79 -16
c9 -3 16 -10 16 -15 0 -6 -9 -5 -21 2 -12 6 -30 9 -40 6 -10 -3 -22 -1 -25 4
-6 10 46 12 70 3z m-19 -24 c3 -5 2 -10 -4 -10 -5 0 -13 5 -16 10 -3 6 -2 10
4 10 5 0 13 -4 16 -10z"/>
<path d="M11450 4279 c0 -5 14 -9 30 -9 17 0 42 -7 55 -16 21 -14 25 -23 23
-63 l-1 -46 -7 50 -7 50 -1 -43 c-1 -28 -7 -45 -17 -48 -8 -4 -15 -10 -15 -15
0 -6 7 -6 18 -1 19 10 42 5 42 -9 0 -4 -8 -6 -17 -3 -15 5 -16 4 -3 -5 8 -6
18 -11 21 -11 11 0 9 129 -1 135 -6 4 -7 11 -4 17 5 7 2 9 -8 5 -9 -3 -19 -2
-24 3 -13 12 -84 19 -84 9z"/>
<path d="M4560 4270 c0 -6 33 -10 80 -10 47 0 80 4 80 10 0 6 -33 10 -80 10
-47 0 -80 -4 -80 -10z"/>
<path d="M4880 4270 c0 -12 67 -12 95 0 14 6 4 9 -37 9 -33 1 -58 -3 -58 -9z"/>
<path d="M7682 4273 l-82 -4 2 -217 c2 -157 6 -216 14 -215 7 1 10 -6 7 -17
-3 -12 0 -20 7 -20 9 0 9 -4 -1 -16 -12 -14 -11 -16 6 -12 16 3 20 11 18 38
-2 27 -1 30 6 15 l8 -20 5 20 c2 11 4 -9 4 -45 -1 -36 -5 -71 -10 -79 -6 -10
-6 -12 2 -7 7 4 12 1 12 -6 0 -13 28 -36 41 -34 4 1 15 -6 25 -15 21 -18 67
-32 58 -18 -3 5 -13 9 -22 10 -10 0 -12 3 -5 5 7 3 22 0 35 -7 37 -20 73 -25
131 -16 47 7 74 26 55 38 -11 7 -11 9 0 9 7 0 10 5 6 11 -9 14 38 -10 48 -25
5 -7 8 -5 8 6 0 9 5 20 12 24 7 5 8 3 3 -5 -6 -10 -3 -11 13 -2 18 9 19 16 11
43 -13 46 -11 55 5 33 8 -11 12 -25 9 -32 -3 -7 -1 -13 4 -13 11 0 36 40 29
47 -3 3 1 11 8 19 8 7 11 24 9 38 -3 14 -1 26 3 26 5 0 8 99 7 220 -1 121 -4
220 -7 220 -4 0 -44 0 -91 0 l-85 0 2 -224 c2 -123 0 -219 -4 -213 -7 11 -13
-4 -9 -25 0 -5 -5 -8 -11 -9 -7 0 -3 -4 10 -9 12 -5 22 -15 21 -22 0 -10 -2
-10 -6 0 -5 13 -53 17 -53 5 0 -5 -27 -8 -60 -9 -33 -1 -60 3 -60 7 0 5 6 7
13 5 6 -1 9 -1 4 2 -13 7 -37 60 -39 86 -2 16 -7 22 -16 18 -12 -4 -12 -1 -3
16 16 31 14 383 -2 380 -7 -1 -49 -4 -95 -5z m106 -429 c0 -15 5 -29 11 -33 6
-4 9 -15 5 -24 -8 -21 -11 -21 -32 -1 -15 15 -14 16 5 10 20 -6 21 -5 10 18
-8 16 -14 20 -19 13 -4 -7 -6 -2 -5 10 0 12 5 19 9 17 4 -3 8 0 8 5 0 6 2 11
4 11 2 0 4 -12 4 -26z m189 -80 c-3 -3 -12 -4 -19 -1 -8 3 -5 6 6 6 11 1 17
-2 13 -5z m153 -19 c7 -9 8 -15 2 -15 -5 0 -12 7 -16 15 -3 8 -4 15 -2 15 2 0
9 -7 16 -15z m-36 -51 c3 -8 2 -12 -4 -9 -6 3 -10 10 -10 16 0 14 7 11 14 -7z
m-339 -24 c0 -1 15 -3 34 -6 19 -2 37 -7 40 -10 3 -4 -6 -5 -21 -2 -15 3 -32
1 -39 -3 -7 -4 -18 -5 -24 -1 -5 4 -14 7 -19 7 -5 0 -11 5 -13 11 -2 6 6 10
19 8 13 -1 23 -3 23 -4z m122 -1 c-16 -4 -38 -4 -50 0 -15 6 -6 8 29 8 41 0
44 -1 21 -8z m113 7 c0 -3 -4 -8 -10 -11 -5 -3 -10 -1 -10 4 0 6 5 11 10 11 6
0 10 -2 10 -4z m-38 -19 c7 -8 20 -16 28 -20 12 -4 12 -6 -2 -6 -9 -1 -23 5
-30 13 -8 7 -29 12 -48 10 -35 -3 -35 -3 -5 5 43 12 42 12 57 -2z m-22 -29 c0
-7 -89 -2 -97 5 -2 3 18 4 46 4 28 -1 51 -5 51 -9z"/>
<path d="M8591 3948 c1 -183 3 -328 5 -323 3 7 29 8 70 5 60 -5 89 3 68 19
-15 10 -15 31 -1 31 9 0 13 -11 12 -30 -1 -19 3 -30 12 -30 16 0 17 12 1 28
-8 8 -8 15 1 26 18 22 12 299 -6 284 -7 -6 -11 -14 -8 -18 3 -5 1 -11 -4 -14
-5 -4 -12 -2 -15 3 -4 5 -2 12 4 16 5 3 10 11 10 16 0 6 -4 7 -10 4 -16 -10
-11 1 7 16 15 12 16 12 8 -1 -5 -9 -4 -12 1 -7 5 5 9 16 9 25 0 9 9 18 19 20
13 3 17 0 13 -11 -3 -8 7 -29 23 -48 20 -23 29 -29 30 -18 0 9 10 24 23 35 22
19 22 19 6 -1 -26 -33 -30 -54 -12 -75 10 -11 28 -20 40 -20 16 0 27 -8 34
-26 5 -15 7 -29 5 -32 -3 -3 -10 7 -15 22 -6 14 -18 26 -27 26 -15 0 -14 -3 4
-23 12 -13 19 -27 15 -30 -3 -4 -1 -8 5 -8 26 -3 31 -4 38 -11 3 -4 -4 -5 -17
-3 -20 4 -22 2 -9 -8 8 -7 20 -21 26 -32 6 -11 15 -18 19 -17 4 2 12 -2 17
-10 8 -10 9 -10 5 2 -2 8 -9 15 -14 15 -31 0 -16 10 16 11 30 2 37 -2 38 -18
2 -20 1 -20 -13 -2 -14 17 -15 17 -10 2 3 -10 -2 -22 -12 -27 -15 -9 -15 -11
3 -12 11 -1 25 -1 30 0 6 1 2 -5 -8 -13 -15 -12 -15 -15 -3 -26 8 -6 24 -9 34
-6 12 4 24 0 33 -11 13 -16 12 -17 -3 -4 -11 8 -18 9 -18 3 0 -7 -8 -9 -17 -5
-11 4 -15 2 -10 -3 10 -11 167 -12 160 -1 -2 4 1 7 6 7 6 0 11 8 11 18 0 14
-2 15 -10 2 -5 -8 -10 -10 -10 -4 0 6 7 17 15 24 13 11 15 54 15 297 -1 252
-3 283 -16 272 -12 -10 -15 -10 -12 2 4 18 -92 31 -99 13 -3 -7 -3 -87 -1
-178 l3 -165 -28 -26 c-16 -15 -32 -24 -35 -20 -6 6 10 20 33 29 6 2 5 9 -2
17 -15 15 -17 53 -3 44 6 -3 10 -16 10 -28 0 -17 2 -19 9 -7 6 8 7 18 5 22 -3
5 -5 81 -5 168 1 126 -1 160 -11 158 -26 -6 -28 -26 -27 -193 1 -205 2 -193
-14 -170 -8 10 -19 15 -24 12 -6 -4 -16 0 -23 8 -7 8 -16 12 -21 9 -5 -3 -6 2
-3 10 6 16 26 23 22 9 -3 -8 5 -13 18 -13 3 0 -4 13 -16 30 -17 23 -27 29 -51
26 -16 -2 -32 1 -35 5 -3 5 -9 7 -12 5 -10 -6 -9 70 1 80 4 5 5 0 2 -11 -6
-16 -5 -17 3 -5 12 16 -3 44 -18 35 -5 -3 -11 -1 -15 5 -3 5 -1 10 5 10 6 0 3
11 -7 24 -12 16 -20 20 -25 12 -7 -11 -9 -7 -12 32 -1 7 -6 16 -12 20 -6 4
-14 15 -17 26 -6 16 -10 16 -24 5 -14 -12 -15 -11 -8 11 7 24 7 24 -9 5 -8
-11 -16 -15 -16 -10 0 6 -17 12 -37 13 -21 1 -55 5 -76 8 l-37 6 1 -334z m34
314 c12 -9 14 -592 1 -585 -4 3 -5 -5 -1 -18 4 -13 4 -21 0 -17 -3 3 -6 142
-5 307 0 202 -3 301 -10 301 -5 0 -10 5 -10 10 0 12 11 13 25 2z m444 -147
l-5 -140 -2 136 c-1 75 1 139 5 142 9 9 9 18 2 -138z m-243 22 c-2 -7 -5 -4
-5 6 -1 10 -5 15 -11 12 -6 -4 -7 1 -3 11 6 15 7 15 15 0 5 -9 7 -22 4 -29z
m28 -9 c-4 -13 -1 -24 7 -29 8 -5 9 -9 3 -9 -19 0 -33 25 -27 48 3 12 9 19 15
16 5 -3 6 -15 2 -26z m-19 -40 c5 -4 0 -6 -11 -6 -16 2 -21 9 -21 32 0 30 0
30 11 6 6 -14 15 -28 21 -32z m-85 -48 c0 -5 -7 -10 -15 -10 -8 0 -15 5 -15
10 0 6 7 10 15 10 8 0 15 -4 15 -10z m103 -49 c-5 -3 -14 -14 -20 -25 -7 -12
-13 -15 -17 -7 -4 6 -2 11 3 11 6 0 11 5 11 11 0 6 -7 8 -16 5 -8 -3 -13 -2
-10 3 3 5 17 9 32 9 14 0 22 -3 17 -7z m122 -1 c3 -5 1 -10 -4 -10 -6 0 -11 5
-11 10 0 6 2 10 4 10 3 0 8 -4 11 -10z m-101 -56 c-2 -21 1 -25 19 -22 12 1
33 -6 47 -16 18 -13 20 -16 5 -10 -11 4 -33 8 -48 8 -20 1 -29 7 -33 23 -3 12
-3 27 1 32 10 17 12 13 9 -15z m96 -14 c-8 -5 -19 -10 -25 -10 -5 0 -3 5 5 10
8 5 20 10 25 10 6 0 3 -5 -5 -10z m144 -25 c-4 -8 -11 -15 -16 -15 -6 0 -5 6
2 15 7 8 14 15 16 15 2 0 1 -7 -2 -15z m-2 -34 c8 12 9 12 5 -1 -4 -15 -77
-23 -77 -8 0 12 34 15 48 4 10 -7 17 -5 24 5z m-155 -23 c-3 -8 -6 -5 -6 6 -1
11 2 17 5 13 3 -3 4 -12 1 -19z m98 -168 c-3 -5 -12 -10 -18 -10 -7 0 -6 4 3
10 19 12 23 12 15 0z m61 -12 c0 -10 -1 -18 -2 -18 0 0 -8 8 -17 18 -15 16
-15 18 1 18 10 0 18 -8 18 -18z"/>
<path d="M9644 4270 c-9 -8 -2 -650 6 -650 5 0 11 6 13 13 3 6 6 7 6 1 1 -7
18 -8 50 -4 27 3 59 3 71 -2 12 -4 26 -6 31 -2 12 7 11 44 -1 44 -6 0 -11 37
-12 88 l-1 87 -6 -92 c-4 -50 -9 -94 -12 -97 -8 -9 3 176 12 202 9 23 42 29
68 13 10 -7 4 -9 -19 -8 l-34 2 3 -90 c2 -49 5 -92 8 -95 2 -3 3 36 2 85 -2
97 4 108 46 81 27 -18 49 -22 25 -5 -13 9 -13 10 0 6 8 -2 14 -10 12 -16 -1
-6 6 -26 15 -44 9 -18 16 -35 15 -38 0 -4 8 -15 18 -24 26 -23 26 -11 1 24
-12 17 -18 36 -14 49 3 13 1 22 -6 22 -6 0 -11 4 -11 8 0 14 45 8 57 -7 21
-27 14 -37 -8 -11 -16 19 -19 21 -15 6 4 -11 1 -23 -6 -27 -9 -6 -9 -12 4 -26
22 -25 43 -67 29 -59 -7 5 -11 -4 -11 -24 0 -22 4 -29 13 -24 8 5 7 2 -2 -9
-8 -10 -11 -20 -7 -24 3 -3 6 -2 6 3 0 5 39 9 87 9 69 0 87 3 85 14 -1 7 2 18
7 25 6 7 3 23 -8 46 -9 19 -18 40 -20 45 -12 34 -16 42 -30 59 -9 10 -14 21
-12 24 6 8 -38 39 -68 47 -18 6 -22 4 -16 -6 5 -8 4 -11 -1 -6 -10 10 -14 58
-5 72 3 6 6 14 6 19 0 5 6 11 13 14 7 2 11 -2 10 -9 -2 -7 6 -14 17 -16 17 -3
17 -2 5 7 -12 8 -8 9 15 5 l30 -6 -30 14 c-29 13 -29 14 -7 19 12 3 20 3 17
-2 -3 -4 5 -10 16 -13 15 -4 27 1 39 16 10 12 15 24 11 27 -4 3 -10 13 -14 23
-7 18 -37 24 -37 6 0 -5 -5 -7 -11 -3 -18 11 14 24 48 20 31 -4 31 -4 27 42
-1 25 -8 55 -14 67 -16 29 -73 66 -111 70 -21 3 -29 1 -20 -4 9 -6 5 -8 -14
-8 -19 0 -23 2 -14 8 11 7 10 9 -3 9 -10 0 -18 3 -18 8 0 7 -318 10 -326 2z
m301 -22 c6 -4 2 -8 -7 -8 -10 0 -18 7 -18 17 0 9 3 12 8 7 4 -5 12 -12 17
-16z m-273 -190 c-4 -367 -8 -392 -12 -100 -3 191 -2 292 5 292 6 0 9 -69 7
-192z m477 108 c0 -6 -3 -5 -6 2 -4 10 -8 10 -19 1 -11 -9 -14 -9 -14 1 0 9
-3 10 -14 1 -11 -9 -13 -5 -11 21 2 18 3 34 4 36 3 7 61 -53 60 -62z m-231
-17 c-8 -5 -2 -10 15 -14 14 -4 25 -10 24 -14 -1 -3 1 -7 6 -8 16 -6 27 -2 27
8 0 8 -6 7 -17 -2 -15 -11 -16 -11 -5 1 18 20 15 29 -8 23 -11 -3 -20 -1 -20
3 0 5 13 9 28 9 34 1 41 -29 14 -59 -9 -11 -11 -16 -4 -12 6 4 12 4 13 -1 0
-4 2 -21 4 -38 3 -24 2 -27 -6 -12 -6 9 -7 22 -4 27 3 6 1 10 -4 10 -12 0 -14
-11 -11 -47 1 -16 -3 -21 -12 -18 -8 3 -31 -5 -50 -19 -31 -21 -39 -22 -48
-11 -7 8 -17 13 -22 12 -7 -1 -10 25 -10 70 1 40 -3 75 -8 78 -6 3 -10 -4 -10
-17 0 -13 -2 -45 -4 -73 l-4 -50 8 45 7 45 0 -59 c0 -49 -2 -56 -13 -42 -6 10
-15 13 -18 8 -3 -5 1 -15 9 -22 8 -7 12 -16 9 -21 -3 -5 -14 1 -24 13 -16 20
-16 24 -2 34 12 9 14 23 9 70 -3 33 -2 66 3 74 5 8 10 12 10 8 0 -4 9 -4 19 0
26 9 114 10 99 1z m-151 -126 c-2 -16 -4 -5 -4 22 0 28 2 40 4 28 2 -13 2 -35
0 -50z m343 -10 c0 -15 2 -14 15 3 8 10 15 14 15 8 0 -6 -6 -17 -14 -23 -12
-10 -17 -8 -26 8 -7 14 -7 21 0 21 5 0 10 -8 10 -17z m-105 -13 c3 -6 -1 -7
-9 -4 -18 7 -21 14 -7 14 6 0 13 -4 16 -10z m-148 -36 c-3 -3 -12 -4 -19 -1
-8 3 -5 6 6 6 11 1 17 -2 13 -5z m60 -19 c0 -10 -6 -14 -15 -10 -20 8 -49 -3
-56 -20 -7 -20 9 -19 28 1 15 14 17 14 32 0 19 -20 10 -36 -19 -35 -21 1 -20
2 3 10 22 8 20 8 -10 5 -19 -2 -44 0 -55 5 -17 6 -17 8 -2 8 9 1 17 6 17 12 0
5 -4 7 -10 4 -5 -3 -10 1 -10 10 0 9 4 14 8 11 5 -3 22 -1 38 4 43 12 51 12
51 -5z m-120 -18 c11 4 14 2 9 -5 -4 -7 -14 -12 -22 -12 -8 0 -14 -5 -14 -12
0 -6 -2 -9 -5 -7 -2 3 -1 16 2 29 4 14 8 19 10 13 3 -7 11 -9 20 -6z m-8 -53
c-9 -11 -16 -55 -20 -118 l-7 -101 1 110 c1 86 5 113 17 122 20 15 26 7 9 -13z
m286 -10 c18 -12 22 -22 20 -45 -4 -26 7 -40 18 -21 2 4 2 1 0 -6 -2 -8 6 -26
17 -42 26 -36 25 -52 0 -21 -20 23 -20 23 -20 2 0 -13 9 -25 23 -31 15 -6 17
-9 5 -9 -9 -1 -25 -4 -35 -7 -10 -3 -14 -2 -7 3 14 11 12 75 -3 91 -7 7 -10
26 -8 43 3 26 1 29 -18 25 -12 -3 -16 -3 -9 0 15 7 6 24 -13 24 -9 0 -12 -6
-8 -17 4 -11 3 -14 -6 -9 -6 4 -20 2 -29 -6 -16 -12 -16 -11 -2 7 29 39 40 42
75 19z m-85 -94 c0 -5 -2 -10 -4 -10 -3 0 -8 5 -11 10 -3 6 -1 10 4 10 6 0 11
-4 11 -10z m-313 -116 c-3 -3 -12 -4 -19 -1 -8 3 -5 6 6 6 11 1 17 -2 13 -5z
m130 -16 c-3 -8 -6 -5 -6 6 -1 11 2 17 5 13 3 -3 4 -12 1 -19z"/>
<path d="M10110 4190 c0 -5 5 -10 11 -10 5 0 7 5 4 10 -3 6 -8 10 -11 10 -2 0
-4 -4 -4 -10z"/>
<path d="M9790 4109 c0 -11 4 -18 10 -14 5 3 7 12 3 20 -7 21 -13 19 -13 -6z"/>
<path d="M10723 4273 c3 -5 -33 -7 -79 -5 l-84 3 0 -321 0 -321 83 3 82 3 0
308 c0 169 3 307 8 307 4 0 8 -134 9 -297 l3 -298 3 290 c3 292 0 335 -19 335
-6 0 -8 -3 -6 -7z"/>
<path d="M11986 4268 c2 -4 5 -150 5 -325 l0 -318 187 2 c103 1 193 2 200 3 6
0 12 8 11 18 0 10 -3 12 -6 5 -2 -7 -12 -13 -21 -12 -11 0 -12 2 -4 6 15 6 17
113 1 113 -6 0 -9 -18 -8 -44 2 -30 -2 -49 -14 -60 -14 -15 -17 -15 -17 -2 0
8 5 18 10 21 6 3 10 24 10 45 0 47 -11 52 -110 48 l-65 -3 -1 62 c-1 46 3 66
14 75 14 11 15 10 8 -7 -4 -11 -4 -16 0 -12 4 4 13 2 21 -4 15 -14 17 -5 3 21
-8 15 -7 19 8 17 11 0 18 -9 18 -21 -1 -18 5 -21 49 -22 61 -1 75 3 75 24 0
13 -3 12 -16 -4 -15 -17 -15 -17 0 8 19 33 22 98 4 98 -10 0 -10 2 -1 8 7 4
-17 9 -52 10 -36 2 -65 -1 -65 -6 0 -4 -9 -8 -20 -8 -11 0 -20 4 -20 9 0 5 -7
4 -16 -3 -13 -12 -15 -5 -13 63 1 42 6 77 10 77 5 0 9 -4 9 -8 0 -10 46 -10
56 1 4 4 26 6 48 5 l41 -1 -45 -7 -45 -7 53 -1 c29 -1 51 2 48 6 -3 5 -6 38
-8 73 l-2 64 -172 0 c-95 0 -170 -3 -168 -7z m341 -345 c-2 -16 -4 -3 -4 27 0
30 2 43 4 28 2 -16 2 -40 0 -55z"/>
<path d="M12348 4273 c7 -3 16 -2 19 1 4 3 -2 6 -13 5 -11 0 -14 -3 -6 -6z"/>
<path d="M12339 4253 c-3 -26 4 -100 11 -112 13 -24 31 23 29 74 -2 36 -6 45
-21 45 -10 0 -18 -3 -19 -7z m18 -80 c-2 -16 -4 -3 -4 27 0 30 2 43 4 28 2
-16 2 -40 0 -55z"/>
<path d="M3026 4228 c-8 -12 -13 -26 -9 -31 3 -5 1 -12 -4 -16 -6 -3 -13 -17
-17 -31 -6 -19 -5 -21 3 -10 8 11 11 11 11 2 0 -7 -7 -15 -15 -18 -19 -8 -19
-21 0 -21 14 0 28 26 23 43 -1 5 4 20 11 33 12 22 14 23 23 6 16 -27 28 2 16
36 -12 35 -22 36 -42 7z m34 -10 c0 -6 -3 -8 -7 -5 -3 4 -12 2 -20 -5 -11 -8
-12 -7 -7 6 7 18 34 22 34 4z"/>
<path d="M4750 4241 c0 -11 39 -26 56 -23 15 3 26 -25 14 -33 -6 -4 -10 2 -10
11 0 16 -1 16 -15 -2 -15 -19 -15 -19 -8 1 3 11 2 17 -3 12 -12 -11 -15 -79
-3 -72 5 4 9 2 9 -4 0 -5 -5 -11 -10 -13 -7 -2 -5 -11 4 -23 13 -18 14 -15 11
28 -2 26 0 47 5 47 6 0 10 -38 10 -85 0 -88 -1 -90 -35 -74 -20 9 -20 9 0 6
15 -3 21 1 21 14 0 11 -5 19 -11 19 -5 0 -3 5 5 10 8 5 10 10 5 10 -6 0 -16
-5 -22 -11 -6 -6 -58 -10 -127 -10 -101 0 -118 -3 -123 -17 -10 -27 -24 -42
-35 -36 -5 3 -1 12 9 20 17 13 17 15 0 28 -16 12 -16 14 -1 20 9 3 14 13 11
20 -6 15 11 36 27 33 5 -1 10 8 11 20 1 16 -3 20 -17 18 -10 -2 -16 0 -13 5 8
13 -15 24 -27 12 -6 -6 -17 -8 -24 -5 -11 4 -14 -14 -13 -93 0 -55 3 -94 6
-87 3 10 9 10 24 0 16 -10 21 -9 28 2 7 10 34 13 116 12 84 -2 106 1 103 11
-3 9 -32 15 -89 19 l-84 5 83 2 c63 2 87 -2 98 -13 9 -8 12 -15 7 -16 -4 0 2
-4 15 -10 13 -5 20 -14 17 -19 -4 -6 -1 -17 5 -25 9 -11 9 -15 1 -15 -6 0 -11
-5 -11 -11 0 -6 7 -8 16 -5 9 3 12 2 9 -5 -4 -6 -14 -8 -22 -5 -11 5 -13 2 -9
-9 3 -10 2 -13 -5 -10 -5 4 -7 15 -4 25 5 16 -4 18 -125 18 -82 1 -130 -3
-130 -9 0 -6 5 -7 10 -4 6 3 10 -2 10 -11 0 -14 -3 -15 -12 -6 -7 7 -17 8 -27
2 -13 -6 -17 -4 -17 11 0 21 12 25 19 7 4 -8 6 -7 6 4 1 9 -5 19 -11 22 -7 4
-3 4 10 2 12 -2 20 0 16 5 -13 21 -43 8 -49 -21 -7 -33 -24 -50 -21 -22 1 15
-10 17 -99 17 -93 0 -100 -1 -100 -20 0 -19 7 -20 132 -20 118 1 132 -1 136
-17 3 -10 1 -18 -4 -18 -5 0 -9 7 -9 15 0 14 -3 13 -25 -2 -13 -10 -27 -26
-30 -36 -4 -10 -11 -14 -18 -10 -7 4 -5 -2 3 -12 14 -17 13 -18 -2 -12 -10 3
-20 2 -23 -4 -4 -5 -11 -7 -16 -4 -5 4 -12 -1 -15 -9 -3 -9 -11 -16 -18 -16
-6 -1 -24 -7 -41 -14 l-30 -13 39 2 c22 0 41 6 44 13 2 7 8 9 14 6 6 -4 5 -10
-3 -16 -10 -6 -7 -7 10 -3 17 5 22 4 16 -5 -6 -9 -4 -11 5 -5 10 6 9 11 -5 21
-15 11 -14 13 11 10 38 -5 48 2 32 22 -11 14 -10 15 5 9 13 -5 17 -3 14 5 -2
7 -10 12 -16 10 -7 -1 -9 3 -6 9 5 8 12 6 23 -5 14 -14 18 -12 39 20 13 19 21
39 18 44 -4 6 -1 9 7 8 8 -2 12 4 10 16 -3 17 -2 18 12 7 9 -8 16 -10 16 -5 0
5 4 3 9 -5 8 -12 12 -12 25 -2 11 9 16 10 16 2 0 -18 89 -14 108 6 16 16 15
16 -8 9 -50 -15 -80 -18 -80 -7 0 6 -16 9 -40 6 -22 -2 -40 1 -40 6 0 10 173
13 183 2 4 -3 1 -13 -5 -22 -7 -9 -9 -13 -4 -9 5 4 18 2 30 -4 26 -14 63 -17
79 -5 7 5 -3 7 -26 5 l-38 -4 23 18 c13 10 28 18 33 18 6 0 3 -5 -5 -11 -13
-9 -12 -10 2 -5 10 3 20 1 23 -3 3 -5 49 -8 102 -8 91 2 98 3 98 22 0 19 -7
20 -118 20 -83 0 -113 3 -103 10 11 8 14 40 15 133 2 130 -8 173 -35 151 -11
-9 -14 -9 -14 0 0 7 -4 9 -10 6 -5 -3 -10 -1 -10 4 0 6 -4 11 -10 11 -5 0 -10
-4 -10 -9z m-255 -91 c-5 -15 -2 -18 14 -15 11 2 23 -1 27 -6 3 -5 2 -8 -3 -7
-4 1 -17 -3 -28 -9 -19 -10 -21 -9 -19 15 2 37 3 42 10 42 3 0 3 -9 -1 -20z
m0 -70 c3 -5 1 -10 -4 -10 -6 0 -11 5 -11 10 0 6 2 10 4 10 3 0 8 -4 11 -10z
m59 -55 c3 -8 1 -15 -4 -15 -6 0 -10 7 -10 15 0 8 2 15 4 15 2 0 6 -7 10 -15z
m223 9 c-3 -3 -12 -4 -19 -1 -8 3 -5 6 6 6 11 1 17 -2 13 -5z m53 -65 c0 -5
-7 -5 -17 -2 -11 4 -14 3 -9 -5 4 -7 2 -10 -6 -7 -8 3 -14 14 -14 24 0 16 4
17 23 8 13 -6 23 -14 23 -18z m-412 -51 c-3 -9 -32 -13 -94 -14 l-89 0 85 5
85 5 -85 6 -85 6 93 2 c71 2 93 -1 90 -10z m537 3 l-80 -5 85 -6 85 -6 -87 -2
c-65 -2 -88 1 -88 11 0 9 -2 9 -9 -1 -6 -11 -10 -10 -19 1 -10 11 6 13 91 13
101 0 101 0 22 -5z m-470 -92 c-5 -7 -11 -6 -20 1 -11 9 -12 15 -2 25 10 11
13 10 20 -1 4 -8 5 -19 2 -25z m-45 -53 c0 -2 -11 -1 -25 2 -14 2 -22 8 -19
13 4 8 44 -6 44 -15z"/>
<path d="M11974 3960 c0 -162 2 -229 3 -147 2 81 2 213 0 295 -1 81 -3 14 -3
-148z"/>
<path d="M4455 4220 c-3 -5 -1 -10 4 -10 6 0 11 5 11 10 0 6 -2 10 -4 10 -3 0
-8 -4 -11 -10z"/>
<path d="M3602 4192 l-22 -17 36 -29 c38 -30 71 -39 67 -18 -2 6 1 12 7 12 5
0 7 7 4 15 -3 8 -9 14 -12 13 -20 -2 -32 3 -27 11 3 6 -3 14 -13 20 -13 7 -24
5 -40 -7z m44 -23 c-1 -10 -5 -18 -11 -17 -5 2 -9 12 -7 23 2 15 0 17 -10 7
-6 -6 -16 -12 -22 -12 -5 0 -1 6 9 14 24 17 43 11 41 -15z m30 -34 c1 -8 -2
-15 -7 -15 -5 0 -9 10 -9 22 0 23 12 17 16 -7z"/>
<path d="M3033 4168 c-7 -8 -7 -22 -2 -35 10 -28 23 -30 16 -3 -3 11 -1 18 4
14 11 -7 11 7 0 24 -6 11 -10 11 -18 0z"/>
<path d="M3834 4159 c0 -22 12 -25 19 -6 2 6 7 9 11 6 4 -4 0 -14 -9 -23 -9
-9 -12 -16 -7 -16 14 0 35 28 28 38 -3 5 -14 12 -24 14 -12 4 -18 -1 -18 -13z"/>
<path d="M2792 4158 c-14 -14 -16 -78 -4 -78 11 0 10 -51 -1 -67 -5 -8 -4 -13
3 -13 6 0 8 -5 4 -11 -4 -6 -8 -33 -9 -59 -2 -38 1 -47 11 -43 15 6 19 -12 5
-21 -5 -3 -11 -15 -14 -26 -3 -13 -1 -18 6 -13 7 4 6 -1 -2 -10 -12 -15 -11
-17 3 -17 9 0 16 4 16 9 0 5 3 17 7 27 4 12 3 15 -5 10 -8 -4 -10 -2 -6 8 7
19 33 10 30 -10 -1 -9 -16 -31 -32 -51 -31 -37 -41 -78 -18 -69 7 3 16 0 20
-6 4 -7 9 -6 15 3 13 21 11 26 -11 25 -22 -1 -29 17 -8 22 9 2 8 0 -2 -7 -13
-9 -13 -11 3 -11 10 0 17 8 17 20 0 26 55 85 65 70 4 -7 -2 -14 -15 -17 -17
-4 -20 -11 -16 -29 4 -13 1 -26 -6 -30 -8 -5 -9 -2 -5 9 3 10 2 17 -3 17 -13
0 -13 -27 -1 -35 11 -6 72 65 66 75 -3 4 5 16 16 26 30 27 73 114 56 114 -15
0 -37 -20 -37 -33 0 -5 8 -3 18 4 15 13 16 12 3 -4 -10 -12 -17 -15 -25 -7 -7
7 -6 14 2 22 16 16 15 25 -2 25 -8 0 -12 -6 -8 -15 3 -10 1 -13 -6 -8 -8 5
-10 1 -5 -10 5 -13 3 -15 -7 -9 -8 5 -11 3 -8 -6 2 -7 -5 -22 -16 -32 -21 -18
-21 -18 4 -6 14 7 28 17 32 23 4 6 8 -2 8 -19 0 -23 -3 -27 -10 -15 -9 13 -12
13 -23 0 -6 -9 -22 -16 -33 -17 -17 -1 -22 4 -21 25 0 15 -1 69 -2 121 -1 78
-3 92 -16 87 -8 -3 -15 -1 -15 4 0 6 7 10 16 10 9 0 14 6 11 13 -2 6 -12 11
-21 11 -19 -2 -22 12 -4 18 8 3 8 7 2 11 -6 3 -16 1 -22 -5z m39 -168 c2 -72
0 -85 -14 -88 -10 -2 -17 1 -17 7 0 6 5 11 10 11 6 0 10 34 10 82 0 106 8 97
11 -12z m9 -104 c0 -3 -4 -8 -10 -11 -5 -3 -10 -1 -10 4 0 6 5 11 10 11 6 0
10 -2 10 -4z m63 -31 c-3 -9 -8 -14 -10 -11 -3 3 -2 9 2 15 9 16 15 13 8 -4z
m-38 -5 c-3 -5 -12 -10 -18 -10 -7 0 -6 4 3 10 19 12 23 12 15 0z m35 -23 c0
-2 -10 -12 -22 -23 l-23 -19 19 23 c18 21 26 27 26 19z"/>
<path d="M2830 4161 c0 -6 5 -13 10 -16 6 -3 10 1 10 9 0 9 -4 16 -10 16 -5 0
-10 -4 -10 -9z"/>
<path d="M4556 4154 c-12 -32 13 -44 90 -44 40 0 76 5 79 10 5 8 11 7 21 -1
11 -9 14 -7 14 9 0 12 -4 24 -10 27 -6 3 -7 -1 -4 -10 5 -11 2 -14 -9 -9 -9 3
-13 12 -10 20 4 11 -11 14 -80 14 -69 0 -86 -3 -91 -16z"/>
<path d="M490 4140 c-8 -5 -51 -10 -96 -10 -90 0 -113 -11 -85 -42 16 -16 30
-18 97 -16 55 2 78 7 77 15 -2 7 3 10 10 7 8 -3 13 6 13 26 1 16 1 30 0 30 0
0 -8 -5 -16 -10z m-25 -26 c-72 -8 -155 -8 -155 -1 0 4 42 6 93 5 50 0 79 -3
62 -4z"/>
<path d="M1930 4140 c-8 -5 -51 -10 -95 -10 -91 0 -114 -11 -86 -42 16 -16 30
-18 97 -16 55 2 78 7 77 15 -2 7 3 10 10 7 8 -3 13 6 13 26 1 16 1 30 0 30 0
0 -8 -5 -16 -10z m-25 -26 c-72 -8 -155 -8 -155 -1 0 4 42 6 93 5 50 0 79 -3
62 -4z"/>
<path d="M3813 4126 c6 -14 -21 -32 -31 -21 -3 3 0 5 6 5 7 0 12 4 12 9 0 5
-13 3 -30 -5 -16 -9 -30 -22 -30 -30 0 -20 18 -17 22 4 3 14 5 14 10 -4 6 -23
-17 -29 -39 -11 -21 15 -45 -10 -32 -34 6 -12 6 -19 0 -19 -5 0 -11 5 -13 12
-3 7 -9 8 -19 3 -8 -5 -20 -10 -27 -11 -8 -2 -17 -6 -20 -10 -4 -4 2 -4 13 -1
19 7 19 6 3 -7 -25 -18 -22 -29 5 -21 18 5 19 4 5 -5 -20 -12 -50 -3 -41 14 3
6 1 6 -8 -1 -20 -20 -29 -16 -30 15 l-1 27 -7 -25 c-5 -17 -3 -31 6 -42 8 -9
12 -25 9 -35 -4 -14 -1 -19 14 -20 11 -1 20 3 20 8 0 6 -4 8 -9 5 -5 -3 -8 6
-8 20 0 17 3 22 10 15 7 -7 20 -5 40 6 41 21 117 78 92 69 -11 -4 -16 -4 -12
0 4 4 2 13 -4 21 -9 9 -8 13 0 13 6 0 11 -4 11 -10 0 -18 49 -10 63 10 8 11
17 17 22 12 5 -4 5 -1 1 6 -4 7 -1 12 7 12 10 0 13 7 10 20 -3 11 -10 20 -15
20 -6 0 -8 -6 -5 -14z m-130 -129 c-3 -5 -9 -3 -14 4 -4 7 -5 17 -2 22 3 5 9
3 14 -4 4 -7 5 -17 2 -22z"/>
<path d="M3514 4070 c-1 -32 3 -57 8 -54 4 3 8 1 8 -5 0 -5 -5 -13 -11 -16 -6
-4 -8 -13 -5 -21 3 -8 1 -14 -5 -14 -6 0 -7 -4 -4 -10 5 -8 -8 -15 -17 -8 -2
1 -14 -5 -28 -12 l-25 -13 30 -13 c17 -7 24 -13 16 -14 -8 0 -11 -3 -8 -6 4
-4 12 -2 19 3 7 6 23 13 36 16 17 4 22 2 18 -8 -4 -11 0 -12 21 -4 23 8 24 8
13 -6 -10 -13 -9 -15 6 -15 19 1 54 22 54 34 0 3 -7 6 -15 6 -8 0 -15 -5 -15
-11 0 -8 -4 -8 -12 -1 -13 10 -19 12 -37 12 -4 0 -9 15 -9 33 -1 17 -2 45 -3
62 -1 16 3 31 10 33 15 5 14 52 -1 52 -6 0 -3 7 8 15 18 15 18 15 0 8 -15 -5
-17 -3 -11 8 8 12 6 12 -8 0 -19 -15 -23 -26 -6 -15 8 4 8 0 0 -15 -16 -28
-19 -26 -15 9 2 17 0 30 -4 30 -4 0 -8 -27 -8 -60z m36 -15 c-7 -8 -16 -15
-21 -15 -5 0 -6 7 -3 15 4 8 13 15 21 15 13 0 13 -3 3 -15z m-12 -119 c-1 -13
-8 -23 -15 -22 -20 3 -28 16 -10 16 10 0 17 7 17 15 0 8 2 15 5 15 3 0 4 -11
3 -24z"/>
<path d="M5194 4098 c3 -32 5 -33 47 -33 42 0 43 1 45 33 2 32 2 32 -47 32
l-49 0 4 -32z m69 -25 c-13 -2 -33 -2 -45 0 -13 2 -3 4 22 4 25 0 35 -2 23 -4z"/>
<path d="M3397 4097 c-13 -20 -13 -23 2 -23 10 0 17 9 17 23 1 13 1 23 -1 23
-1 0 -9 -10 -18 -23z"/>
<path d="M3020 4101 c0 -6 4 -13 10 -16 6 -3 7 1 4 9 -7 18 -14 21 -14 7z"/>
<path d="M3424 4074 c4 -21 2 -23 -9 -14 -10 8 -15 8 -20 0 -4 -6 -13 -9 -21
-6 -9 3 -11 0 -7 -11 5 -12 3 -14 -7 -8 -9 6 -11 4 -5 -5 6 -10 4 -12 -9 -7
-9 4 -15 3 -12 -2 3 -4 -6 -13 -21 -20 -30 -14 -22 -27 20 -35 23 -4 28 -2 23
10 -3 8 -2 13 3 9 13 -8 89 68 84 83 -3 7 0 11 5 10 6 -2 12 1 14 6 1 5 -7 11
-20 12 -19 3 -22 0 -18 -22z m-21 -31 c-5 -12 -3 -14 8 -8 12 7 12 6 1 -7 -8
-10 -20 -14 -29 -11 -10 4 -14 2 -10 -4 3 -5 -1 -10 -9 -10 -10 0 -6 9 13 29
31 32 35 34 26 11z m-66 -58 c0 -8 -4 -12 -9 -9 -5 3 -6 10 -3 15 9 13 12 11
12 -6z"/>
<path d="M3931 4086 c-6 -7 0 -21 20 -40 16 -16 29 -33 29 -38 0 -4 8 -8 18
-8 14 0 15 -2 2 -10 -10 -6 -11 -10 -2 -10 6 0 12 -6 12 -14 0 -23 23 -36 38
-20 7 8 10 14 7 14 -3 0 -1 8 4 18 9 17 -8 53 -26 53 -4 0 -7 7 -5 16 2 9 -1
12 -7 8 -6 -3 -14 0 -17 9 -3 8 -12 12 -20 9 -10 -4 -11 -10 -3 -24 17 -33 -6
-21 -26 14 -14 24 -15 29 -3 19 12 -10 18 -10 27 2 9 11 7 14 -14 14 -13 0
-29 -6 -34 -12z m85 -61 c9 -19 21 -35 26 -35 5 0 6 5 2 12 -4 7 -3 8 4 4 13
-8 -5 -56 -20 -56 -5 0 -7 4 -3 9 3 5 1 12 -4 16 -6 3 -8 12 -4 20 3 9 -1 15
-10 15 -10 0 -14 9 -13 25 0 14 2 25 3 25 1 0 10 -16 19 -35z"/>
<path d="M2451 4074 c0 -11 3 -14 6 -6 3 7 2 16 -1 19 -3 4 -6 -2 -5 -13z"/>
<path d="M2970 4083 c-5 -25 -5 -28 -13 -40 -13 -21 -16 -52 -6 -59 17 -10 23
5 8 23 -12 15 -12 16 1 8 8 -4 12 -5 8 0 -9 9 9 45 22 45 6 0 10 -5 10 -11 0
-5 -4 -7 -10 -4 -5 3 -10 1 -10 -4 0 -13 3 -13 24 -5 14 5 14 9 4 22 -11 13
-10 15 6 9 16 -6 17 -5 6 8 -14 17 -35 21 -25 5 3 -5 2 -10 -4 -10 -5 0 -12 6
-14 13 -4 10 -6 10 -7 0z"/>
<path d="M2676 4060 c7 -31 11 -54 19 -104 4 -25 10 -35 16 -29 6 6 6 20 -1
38 -8 21 -8 31 1 39 9 8 10 7 4 -3 -5 -9 -4 -12 3 -7 6 4 10 20 8 36 -2 18 1
30 8 30 6 0 3 5 -7 11 -13 8 -22 7 -32 -1 -10 -8 -15 -8 -19 2 -3 7 -4 2 0
-12z"/>
<path d="M8910 4066 c0 -9 -4 -14 -10 -11 -14 9 -12 -7 4 -28 9 -12 16 -14 21
-8 3 6 11 11 16 11 6 0 7 -5 3 -12 -4 -7 -3 -8 5 -4 9 6 9 11 0 22 -9 12 -15
12 -28 2 -14 -12 -15 -11 -2 5 11 14 11 21 3 29 -9 9 -12 8 -12 -6z"/>
<path d="M625 4040 c3 -14 8 -34 9 -45 2 -11 5 -22 6 -25 3 -6 6 -20 8 -35 1
-5 20 -10 41 -11 28 0 38 3 34 13 -3 7 -10 10 -15 7 -6 -4 -8 2 -3 15 4 12 2
21 -4 21 -6 0 -11 -8 -11 -18 0 -10 -7 -18 -18 -18 -13 0 -17 6 -15 21 2 11
-5 38 -17 60 -13 25 -19 31 -15 15z"/>
<path d="M2462 4042 c-1 -7 -6 -11 -10 -8 -12 7 -40 -81 -31 -96 4 -7 11 -9
16 -5 4 5 3 11 -3 15 -6 5 -3 20 8 42 13 24 16 27 12 10 -4 -14 -9 -31 -11
-37 -3 -7 0 -13 5 -13 6 0 13 8 15 18 2 9 3 7 2 -6 -1 -12 1 -25 6 -28 5 -3 3
-13 -3 -24 -7 -10 -16 -16 -21 -13 -5 3 -3 9 4 14 7 4 10 12 5 16 -9 9 -48
-35 -44 -49 5 -13 24 -6 20 7 -1 6 5 1 13 -10 9 -11 14 -30 12 -43 -2 -12 -1
-25 4 -28 4 -2 6 -10 3 -17 -2 -7 -6 -59 -7 -116 -2 -98 -1 -102 20 -108 13
-3 20 -9 18 -14 -3 -4 -13 -5 -23 -2 -13 5 -14 3 -6 -7 18 -19 49 -4 50 25 2
26 -11 34 -19 13 -3 -10 -8 -10 -16 -2 -10 9 -6 13 13 18 l26 6 0 117 c0 95
-3 118 -16 128 -15 10 -15 13 1 28 9 9 15 17 13 18 -33 8 -35 6 -32 -27 1 -19
-2 -34 -7 -34 -5 0 -9 4 -9 9 0 5 -3 17 -7 27 -5 13 -3 15 7 9 10 -6 12 -4 7
10 -4 9 -3 23 3 30 6 7 9 24 6 38 -3 20 -1 24 15 20 17 -5 23 -15 20 -35 -1
-8 15 -12 32 -9 11 2 8 -14 -5 -28 -11 -10 -9 -11 6 -5 11 4 17 3 14 -2 -3 -5
0 -15 8 -22 9 -8 14 -9 14 -2 0 6 6 8 13 4 6 -4 9 -4 5 1 -4 4 -2 15 4 23 10
11 8 17 -7 29 -33 24 -58 36 -51 24 5 -7 1 -9 -8 -5 -9 3 -14 10 -11 14 3 5
-10 14 -29 20 -29 9 -36 17 -39 43 -2 18 -5 26 -5 19z m121 -130 c-6 -15 -5
-16 12 -2 17 14 18 14 6 -8 -7 -13 -15 -21 -18 -18 -10 9 -12 56 -3 51 5 -3 6
-13 3 -23z"/>
<path d="M3043 4025 c-11 -8 -23 -11 -27 -8 -14 14 -44 9 -41 -6 2 -9 4 -19 4
-23 1 -5 5 -8 11 -8 5 0 7 6 4 14 -4 10 0 14 12 12 9 -2 19 -11 20 -21 1 -10
6 -21 11 -24 4 -3 8 -12 9 -18 2 -30 4 -36 11 -30 9 10 33 -13 33 -32 -1 -13
-3 -13 -17 4 -14 18 -15 18 -9 2 3 -10 6 -23 6 -28 0 -5 7 -9 16 -9 12 0 15
-6 10 -24 -13 -51 19 -68 51 -28 16 20 -1 43 -25 34 -15 -5 -15 -4 1 12 19 20
20 25 7 46 -5 8 -13 11 -17 6 -4 -5 -2 -11 5 -13 16 -6 15 -23 -2 -23 -8 0
-16 13 -18 30 -5 31 6 50 15 28 4 -8 6 -7 6 4 1 9 -6 23 -14 31 -8 8 -11 17
-8 21 3 3 -2 8 -11 12 -9 3 -13 10 -10 15 3 5 1 16 -3 24 -8 13 -11 13 -30 0z
m24 -27 c-4 -24 -22 -35 -32 -19 -4 7 1 9 12 5 17 -5 17 -5 0 9 -14 11 -15 16
-5 20 24 10 28 7 25 -15z m17 -33 c-4 -8 -1 -15 5 -15 17 0 13 -17 -5 -24 -12
-4 -15 -2 -10 9 3 8 0 15 -6 15 -7 0 -6 5 2 15 7 8 14 15 16 15 2 0 1 -7 -2
-15z m53 -158 c0 -7 -9 -14 -19 -14 -10 -1 -18 3 -18 8 0 6 5 7 10 4 6 -3 10
-1 10 4 0 6 4 11 8 11 5 0 9 -6 9 -13z"/>
<path d="M2671 4025 c-9 -47 -8 -85 1 -85 7 0 8 -13 5 -36 -4 -20 -2 -46 4
-58 10 -21 10 -21 -6 -1 -11 13 -14 30 -11 50 4 23 3 26 -4 13 -15 -25 -20
-79 -6 -72 6 3 3 -1 -6 -8 -15 -13 -15 -15 2 -26 29 -18 48 -6 44 29 -2 16 1
29 6 29 6 0 10 8 10 18 0 14 -2 15 -10 2 -7 -11 -9 -8 -9 15 1 32 -17 147 -20
130z m9 -215 c0 -5 -2 -10 -4 -10 -3 0 -8 5 -11 10 -3 6 -1 10 4 10 6 0 11 -4
11 -10z"/>
<path d="M5470 4016 c0 -13 -5 -17 -20 -13 -13 3 -20 0 -20 -8 0 -17 30 -48
39 -40 3 4 -3 13 -13 21 -23 16 -9 18 30 4 19 -7 30 -7 40 1 11 9 14 8 15 -2
0 -8 2 -90 3 -184 2 -93 5 -179 9 -190 3 -11 6 -23 6 -27 1 -5 6 -8 12 -8 7 0
8 5 3 13 -5 7 -2 5 8 -5 14 -16 36 -18 188 -18 151 0 171 2 160 15 -10 11 -46
15 -178 17 -137 3 -166 6 -169 18 -3 9 -1 11 4 5 12 -16 253 -20 253 -5 0 8
-30 11 -105 8 -72 -2 -108 1 -116 9 -9 9 -12 62 -10 194 2 128 -1 179 -8 174
-6 -3 -9 -17 -7 -30 3 -19 1 -22 -11 -18 -11 4 -14 2 -9 -5 4 -7 3 -12 -3 -12
-18 0 -23 20 -7 26 9 3 16 10 16 15 0 4 -7 5 -17 2 -11 -4 -14 -3 -9 5 6 11
-5 17 -26 13 -5 0 -8 4 -8 11 0 9 -3 9 -12 0 -7 -7 -19 -12 -27 -12 -11 0 -12
3 -4 8 8 5 9 13 3 22 -8 12 -10 12 -10 -4z m120 -213 l-5 -128 -3 114 c-2 101
0 141 10 141 2 0 1 -57 -2 -127z m-23 -80 c-2 -38 -3 -7 -3 67 0 74 1 105 3
68 2 -38 2 -98 0 -135z m0 -95 c-3 -8 -6 -5 -6 6 -1 11 2 17 5 13 3 -3 4 -12
1 -19z"/>
<path d="M3849 4013 c-1 -2 -2 -6 -3 -10 -1 -5 -7 -18 -14 -30 -7 -12 -12 -26
-11 -30 3 -20 -2 -27 -12 -13 -9 13 -10 12 -5 -2 3 -10 1 -18 -4 -18 -6 0 -10
3 -10 8 0 4 -13 8 -30 8 -16 1 -27 -2 -24 -7 3 -5 1 -9 -5 -9 -5 0 -13 5 -16
11 -5 7 -12 6 -23 -4 -10 -8 -24 -17 -32 -20 -8 -3 -3 -6 13 -6 16 -1 26 3 22
9 -3 6 1 10 9 10 9 0 16 -4 16 -8 0 -13 48 -32 81 -32 19 0 32 6 37 18 4 9 16
17 27 17 11 0 20 5 20 10 0 6 3 15 7 21 4 6 4 20 1 32 -4 18 -8 20 -19 11 -8
-7 -18 -9 -21 -5 -10 9 19 27 34 21 7 -2 15 0 18 5 4 6 3 10 -2 11 -4 0 -18 2
-30 3 -13 2 -24 1 -24 -1z m-3 -70 c-10 -10 -19 5 -10 18 6 11 8 11 12 0 2 -7
1 -15 -2 -18z m27 -7 c-10 -13 -20 -20 -21 -15 -5 12 17 39 30 39 5 0 1 -11
-9 -24z m-40 -34 c-4 -17 -12 -22 -37 -21 -20 1 -24 3 -10 6 11 2 26 13 34 23
17 24 21 21 13 -8z m-59 9 c3 -5 -1 -11 -9 -14 -9 -4 -12 -1 -8 9 6 16 10 17
17 5z"/>
<path d="M6836 3976 c3 -8 13 -17 22 -21 13 -5 13 -2 -3 15 -21 24 -26 25 -19
6z"/>
<path d="M2494 3938 c1 -26 21 -43 37 -32 8 5 6 10 -5 16 -9 5 -16 16 -16 23
0 8 -4 15 -8 15 -5 0 -8 -10 -8 -22z"/>
<path d="M10021 3950 c-5 -3 -8 -13 -8 -24 0 -17 1 -18 13 -1 7 9 17 14 22 11
5 -3 17 1 27 8 17 12 15 13 -14 12 -18 0 -36 -3 -40 -6z"/>
<path d="M2404 3933 c4 -7 3 -13 -3 -13 -6 0 -7 -7 -4 -17 4 -10 2 -14 -4 -10
-10 6 -20 -7 -21 -27 0 -4 -19 -27 -41 -50 l-42 -43 19 -23 20 -24 40 44 c23
24 39 47 36 52 -3 4 -10 6 -15 2 -5 -3 -7 -10 -4 -15 4 -5 4 -9 1 -9 -3 0 -10
9 -16 20 -10 19 -9 20 20 15 21 -4 30 -1 30 8 0 21 -12 28 -26 16 -8 -7 -14
-6 -20 2 -4 8 -3 9 4 5 7 -4 18 6 27 25 13 25 14 34 4 43 -9 8 -10 8 -5 -1z
m-50 -114 c-3 -6 0 -15 7 -20 12 -8 11 -12 -3 -23 -10 -7 -14 -17 -10 -21 4
-5 1 -5 -6 -1 -7 4 -10 11 -7 16 3 5 1 11 -4 15 -6 3 -3 14 7 25 18 22 27 27
16 9z"/>
<path d="M3630 3920 c20 -13 40 -13 40 0 0 6 -12 10 -27 10 -22 0 -25 -2 -13
-10z"/>
<path d="M663 3907 c-3 -5 1 -15 10 -22 9 -7 15 -15 12 -19 -3 -3 0 -2 7 4 8
6 16 5 26 -3 13 -10 14 -8 9 13 -4 14 -4 19 -1 13 3 -7 11 -13 17 -13 7 0 5 7
-4 16 -19 18 -67 26 -76 11z"/>
<path d="M3413 3909 c-7 -7 -20 -13 -30 -14 -89 -11 -126 -26 -101 -41 17 -11
78 -11 78 -1 0 5 7 4 15 -3 13 -11 14 -10 9 4 -4 11 -1 16 11 16 9 0 13 -4 10
-10 -8 -13 5 -13 25 0 8 5 11 10 5 10 -5 0 -1 7 9 15 16 12 17 15 4 15 -9 0
-18 5 -20 10 -2 7 -7 7 -15 -1z m17 -19 c0 -5 -7 -10 -16 -10 -8 0 -12 5 -9
10 3 6 10 10 16 10 5 0 9 -4 9 -10z m-75 -20 c-11 -5 -33 -8 -50 -8 l-30 0 30
8 c17 4 39 8 50 8 l20 1 -20 -9z"/>
<path d="M4658 3913 c7 -3 16 -2 19 1 4 3 -2 6 -13 5 -11 0 -14 -3 -6 -6z"/>
<path d="M6930 3886 c14 -8 29 -12 33 -9 12 8 -14 23 -38 22 -18 0 -17 -1 5
-13z"/>
<path d="M3653 3873 c15 -2 37 -2 50 0 12 2 0 4 -28 4 -27 0 -38 -2 -22 -4z"/>
<path d="M704 3862 c4 -7 1 -12 -6 -12 -9 0 -9 -3 2 -10 8 -5 11 -10 6 -10 -5
0 -3 -7 4 -15 17 -21 23 -19 37 10 8 19 8 25 0 25 -7 0 -5 5 3 10 11 7 11 10
2 10 -14 0 -33 -40 -24 -54 3 -5 0 -6 -6 -2 -6 3 -9 15 -7 26 2 11 -1 23 -7
26 -7 4 -8 2 -4 -4z"/>
<path d="M4784 3858 c-3 -4 3 -5 12 -1 12 4 15 2 12 -8 -10 -28 128 -130 165
-122 16 3 18 2 8 -5 -11 -8 -10 -11 7 -16 39 -13 63 -15 57 -5 -4 5 0 12 8 15
22 8 9 47 -14 41 -10 -3 -20 0 -22 7 -3 8 -8 8 -17 -1 -9 -8 -7 -12 9 -18 11
-3 25 -3 31 0 15 9 12 -4 -4 -21 -8 -8 -21 -14 -28 -14 -10 0 -10 2 0 8 9 6 6
12 -13 22 -19 10 -22 16 -13 27 9 11 7 12 -7 7 -14 -6 -16 -4 -10 6 5 9 4 11
-3 6 -7 -4 -10 -17 -8 -29 1 -12 1 -17 -1 -10 -2 7 -12 9 -21 6 -14 -5 -15 -3
-5 7 13 14 0 50 -18 50 -6 0 -21 13 -34 28 -17 20 -33 29 -55 29 -17 0 -33 -4
-36 -9z m71 -7 c3 -5 0 -13 -6 -17 -8 -4 -7 -9 2 -15 8 -5 17 -3 22 4 5 7 5 2
2 -12 -7 -22 -5 -23 21 -18 27 6 28 6 6 -5 -20 -10 -27 -8 -54 19 -17 17 -27
36 -24 42 9 13 23 14 31 2z m75 -75 c0 -2 -7 -7 -16 -10 -8 -3 -12 -2 -9 4 6
10 25 14 25 6z"/>
<path d="M4830 3839 c0 -5 5 -7 10 -4 6 3 10 8 10 11 0 2 -4 4 -10 4 -5 0 -10
-5 -10 -11z"/>
<path d="M565 3850 c-4 -6 -12 -7 -18 -4 -7 4 -9 4 -5 -1 4 -4 3 -14 -3 -22
-9 -10 -8 -13 0 -13 7 0 9 -5 5 -11 -5 -8 -9 -8 -14 1 -6 9 -13 9 -29 1 -11
-7 -21 -8 -21 -4 -1 11 -24 -29 -26 -46 -3 -15 -25 -33 -33 -26 -2 3 2 11 9
20 7 8 9 15 4 15 -4 0 1 7 12 16 17 14 17 15 1 10 -10 -3 -21 -6 -23 -6 -2 0
-4 -9 -4 -21 0 -11 -5 -17 -10 -14 -6 3 -5 -6 2 -20 7 -15 14 -22 16 -16 2 6
8 11 14 11 21 0 78 33 72 42 -3 5 1 8 9 6 9 -2 23 6 32 17 9 11 13 14 9 6 -5
-10 -3 -12 7 -6 35 20 38 26 27 51 -12 26 -23 30 -33 14z m21 -24 c2 -12 -4
-13 -35 -7 -2 1 2 8 9 16 14 16 23 13 26 -9z m-76 -46 c-8 -5 -15 -15 -15 -21
0 -7 -6 -14 -12 -16 -7 -3 -13 0 -13 7 0 16 23 39 40 39 13 1 13 0 0 -9z"/>
<path d="M1690 3838 c-28 -30 -25 -42 8 -35 20 4 29 2 29 -8 0 -7 -7 -11 -16
-8 -9 2 -5 -2 8 -10 14 -8 32 -12 40 -9 9 3 12 1 7 -6 -3 -6 3 -16 14 -22 11
-6 20 -8 20 -5 0 3 10 -3 22 -14 22 -22 43 -18 34 5 -3 8 1 14 9 14 27 0 16
28 -15 38 -24 9 -33 7 -57 -11 -15 -12 -24 -16 -19 -9 4 7 1 15 -8 18 -9 3
-16 14 -16 23 1 13 5 11 20 -7 19 -23 19 -23 30 -3 9 17 8 20 -6 14 -12 -4
-15 -3 -10 5 4 8 2 10 -7 6 -8 -3 -17 2 -20 10 -3 8 -15 20 -26 25 -16 9 -24
7 -41 -11z m25 2 c-3 -5 3 -10 14 -10 37 0 22 -15 -17 -17 -28 -1 -32 1 -17 7
11 5 16 9 12 9 -9 1 0 21 9 21 3 0 2 -4 -1 -10z m112 -79 c-3 -14 -1 -18 9
-14 8 3 11 9 8 14 -3 5 0 9 5 9 17 0 13 -18 -6 -29 -10 -6 -12 -11 -5 -11 6 0
12 -5 12 -12 0 -7 -10 -3 -21 9 -13 12 -19 28 -16 37 9 23 20 20 14 -3z"/>
<path d="M5848 3853 c7 -3 16 -2 19 1 4 3 -2 6 -13 5 -11 0 -14 -3 -6 -6z"/>
<path d="M775 3830 c4 -19 -9 -28 -18 -12 -2 4 -3 2 -1 -4 1 -6 -3 -18 -9 -25
-10 -11 -9 -11 4 -1 13 10 19 9 28 -2 8 -10 9 -16 1 -21 -5 -3 -10 -1 -10 6 0
7 -3 9 -7 6 -10 -11 40 -58 55 -52 9 3 12 0 9 -9 -7 -18 12 -36 31 -29 10 4
13 2 8 -5 -11 -18 0 -14 15 5 10 11 10 14 2 9 -7 -4 -13 -2 -13 3 0 6 -6 10
-12 9 -7 -2 -12 3 -10 10 1 6 -2 12 -6 12 -5 0 -9 7 -10 15 -1 8 -3 22 -4 29
-1 8 -6 14 -12 13 -6 -1 -10 4 -8 11 1 7 -5 15 -13 18 -8 3 -13 10 -10 14 3 5
1 11 -4 15 -6 3 -8 -3 -6 -15z m25 -24 c0 -3 -4 -8 -10 -11 -5 -3 -10 -1 -10
4 0 6 5 11 10 11 6 0 10 -2 10 -4z m15 -47 c-4 -5 -1 -9 6 -9 10 0 10 -3 1
-12 -17 -17 -47 9 -31 28 12 15 33 9 24 -7z"/>
<path d="M795 3761 c-3 -5 -2 -12 3 -15 5 -3 9 1 9 9 0 17 -3 19 -12 6z"/>
<path d="M506 3825 c-11 -8 -15 -15 -9 -15 6 0 16 7 23 15 16 19 11 19 -14 0z"/>
<path d="M3294 3828 c9 -5 23 -5 32 0 12 6 7 9 -16 9 -23 0 -28 -3 -16 -9z"/>
<path d="M3651 3748 c2 -95 -4 -124 -22 -113 -16 10 -10 -7 7 -20 13 -9 1 -11
-59 -11 -62 1 -79 4 -90 20 -13 17 -14 17 -31 1 -13 -13 -17 -14 -16 -4 7 44
-1 149 -11 149 -7 0 -10 -36 -7 -115 2 -63 -1 -110 -5 -106 -5 5 -10 53 -10
107 -2 126 -20 140 -27 21 -4 -75 -3 -87 10 -82 10 3 8 0 -3 -9 -28 -22 -18
-50 18 -51 25 0 30 4 28 23 -3 22 4 26 45 22 12 -1 22 2 22 7 0 13 401 5 427
-9 12 -6 20 -15 17 -19 -2 -4 0 -10 6 -14 5 -3 10 1 10 9 0 9 8 16 18 16 14 0
15 -2 2 -10 -13 -8 -13 -10 2 -10 14 0 16 6 11 33 -3 17 -10 34 -15 35 -5 2
-3 11 3 19 14 17 20 55 7 47 -4 -3 -8 17 -8 45 0 27 -2 55 -3 63 -2 7 -2 10 0
6 8 -15 22 -8 17 7 -7 18 -34 20 -34 3 0 -10 -2 -10 -9 0 -7 11 -9 11 -14 -2
-4 -11 -1 -16 11 -17 15 0 15 -1 1 -7 -10 -5 -16 -23 -18 -61 -2 -36 1 -51 8
-46 8 4 8 0 1 -17 -10 -22 -16 -23 -105 -21 -89 2 -95 0 -95 -19 0 -22 -21
-20 -28 3 -3 11 -2 11 7 -1 6 -8 11 -10 11 -5 0 19 -15 31 -39 32 -19 2 -22
-2 -19 -22 3 -14 2 -22 -2 -20 -4 2 -8 55 -9 117 -1 61 -4 114 -7 117 -3 3 -4
-38 -3 -91z m310 -109 c-25 -27 -27 -49 -5 -49 9 0 12 5 8 12 -5 7 -3 8 5 3
25 -15 -6 -30 -34 -17 -14 7 -63 13 -108 14 l-82 2 75 3 c95 4 120 10 120 28
0 8 5 15 10 15 6 0 10 8 10 17 0 13 3 14 11 6 8 -8 6 -17 -10 -34z m-477 -35
c4 -10 1 -14 -6 -12 -15 5 -23 28 -10 28 5 0 13 -7 16 -16z"/>
<path d="M3670 3755 c0 -68 3 -84 17 -89 9 -4 21 -1 27 5 8 9 8 10 -1 5 -16
-9 -18 86 -3 115 8 14 7 19 -1 19 -6 0 -9 6 -6 13 3 8 -3 14 -14 14 -17 2 -19
-6 -19 -82z m30 40 c0 -5 -5 -3 -10 5 -5 8 -10 20 -10 25 0 6 5 3 10 -5 5 -8
10 -19 10 -25z"/>
<path d="M4614 3814 c1 -29 12 -31 26 -5 13 26 13 27 -9 28 -14 1 -18 -5 -17
-23z"/>
<path d="M4660 3828 c0 -10 -12 -30 -27 -45 -25 -25 -33 -28 -86 -25 -72 5
-87 -1 -80 -28 5 -18 12 -20 67 -18 69 2 88 -5 80 -30 -5 -14 -4 -15 5 -2 9
13 11 13 11 -2 0 -10 -4 -18 -10 -18 -5 0 -10 -4 -10 -10 0 -5 8 -10 18 -10
10 0 27 -9 39 -19 17 -17 38 -19 158 -20 76 -1 142 -4 146 -7 4 -2 10 2 12 8
4 9 6 8 6 -2 1 -15 -68 -16 -547 -7 -72 1 -132 0 -132 -3 1 -29 21 -31 351
-28 l334 3 0 25 0 25 -145 2 c-80 1 -149 3 -155 3 -5 0 -16 4 -24 9 -12 8 -12
12 -2 25 8 9 9 16 3 16 -6 0 -12 -5 -14 -10 -2 -6 -8 3 -15 20 -6 16 -7 28 -2
24 5 -3 9 0 9 5 0 6 -5 11 -12 11 -6 0 -8 3 -5 6 4 4 14 1 22 -6 13 -10 13
-15 3 -21 -7 -4 -10 -11 -6 -14 3 -3 16 8 28 26 l23 31 -24 -7 c-23 -7 -23 -6
-5 7 13 10 15 17 8 22 -6 4 -8 14 -5 23 4 11 3 14 -5 9 -7 -4 -12 -3 -12 3 0
5 4 11 10 13 6 2 6 8 0 18 -8 13 -10 13 -10 -2z m-4 -60 c-1 -13 -6 -22 -9
-20 -4 1 -11 2 -17 2 -5 0 -10 5 -10 10 0 6 7 10 15 10 8 0 15 5 15 10 0 6 2
10 5 10 3 0 3 -10 1 -22z m-66 -40 c0 -6 -6 -5 -15 2 -8 7 -15 14 -15 16 0 2
7 1 15 -2 8 -4 15 -11 15 -16z m30 2 c0 -5 -5 -10 -11 -10 -5 0 -7 5 -4 10 3
6 8 10 11 10 2 0 4 -4 4 -10z m-77 -7 c-13 -2 -33 -2 -45 0 -13 2 -3 4 22 4
25 0 35 -2 23 -4z"/>
<path d="M3377 3793 c-13 -13 -7 -25 7 -14 11 9 15 9 20 -1 5 -10 7 -10 12 0
3 6 10 10 14 7 5 -3 11 -1 15 5 7 11 -57 14 -68 3z"/>
<path d="M5434 3790 c-12 -5 -25 -13 -28 -19 -4 -6 -12 -8 -20 -5 -7 3 -13 -2
-13 -9 0 -8 10 -15 21 -15 12 0 32 -2 46 -4 21 -3 25 1 25 25 1 34 -3 37 -31
27z m15 -13 c-2 -1 -13 -9 -24 -17 -19 -14 -19 -14 -6 3 7 9 18 17 24 17 6 0
8 -1 6 -3z m11 -21 c0 -2 -7 -7 -16 -10 -8 -3 -12 -2 -9 4 6 10 25 14 25 6z"/>
<path d="M7656 3764 c-3 -8 -10 -12 -16 -9 -13 8 -13 -1 0 -26 11 -20 30 -26
30 -8 0 5 -4 7 -10 4 -5 -3 -10 1 -10 10 0 9 5 13 10 10 6 -3 10 3 10 14 0 25
-6 27 -14 5z"/>
<path d="M845 3755 c4 -11 8 -26 8 -32 0 -10 3 -10 16 0 12 9 13 9 7 0 -5 -9
-1 -13 11 -13 12 0 19 -8 20 -20 1 -12 -4 -20 -15 -20 -13 0 -13 -2 3 -14 11
-8 23 -12 27 -10 3 2 22 -5 41 -16 20 -12 42 -18 52 -14 10 4 21 1 26 -7 6 -9
9 -10 9 -2 0 7 -8 17 -17 22 -10 6 -13 11 -8 11 6 0 15 -4 20 -9 12 -10 75
-23 75 -15 0 3 -14 10 -30 16 -28 9 -29 11 -13 23 19 14 22 14 -64 17 -18 0
-30 4 -28 9 6 9 -34 24 -54 20 -8 -1 -10 2 -5 10 4 8 3 10 -4 5 -7 -4 -12 -2
-12 4 0 6 -4 8 -10 5 -5 -3 -10 -1 -10 4 0 6 -5 11 -11 11 -7 0 -18 8 -26 18
-14 16 -14 16 -8 -3z m118 -64 c5 -1 5 -6 2 -11 -3 -6 4 -14 17 -19 16 -7 18
-10 6 -10 -9 -1 -20 4 -23 9 -3 6 -11 10 -17 10 -6 0 -5 -7 3 -17 13 -16 12
-17 -3 -5 -9 8 -23 11 -30 7 -7 -3 -5 0 4 7 15 11 15 13 1 23 -13 10 -12 11 8
9 13 -1 28 -3 32 -3z m72 -39 c-3 -3 -11 0 -18 7 -9 10 -8 11 6 5 10 -3 15 -9
12 -12z m-25 -22 c0 -5 -4 -10 -10 -10 -5 0 -10 5 -10 10 0 6 5 10 10 10 6 0
10 -4 10 -10z"/>
<path d="M4700 3749 c0 -11 28 -19 66 -19 24 0 34 5 34 15 0 13 -11 16 -50 14
-27 -2 -50 -6 -50 -10z"/>
<path d="M4807 3739 c-5 -19 -11 -21 -56 -17 -28 3 -51 2 -51 -1 0 -10 68 -13
102 -6 15 4 28 13 28 20 0 23 -17 26 -23 4z"/>
<path d="M7005 3750 c-3 -5 -1 -10 4 -10 6 0 11 5 11 10 0 6 -2 10 -4 10 -3 0
-8 -4 -11 -10z"/>
<path d="M12383 3715 c0 -27 2 -38 4 -22 2 15 2 37 0 50 -2 12 -4 0 -4 -28z"/>
<path d="M2727 3723 c-15 -8 -35 -25 -43 -39 -9 -13 -20 -21 -25 -18 -5 3 -9
-2 -9 -11 0 -9 -5 -13 -11 -9 -8 5 -8 1 0 -14 16 -30 32 -31 70 -6 35 24 50
54 25 50 -22 -3 -29 -16 -9 -16 10 0 16 -2 13 -5 -3 -4 -18 -3 -32 1 -27 6
-27 7 -6 21 11 8 18 19 15 24 -4 5 -1 9 4 9 6 0 11 -7 11 -17 0 -9 3 -13 7
-10 3 4 12 2 19 -4 8 -7 14 -7 19 1 13 21 22 0 18 -43 -5 -43 -4 -44 26 -44
17 0 31 4 31 9 0 4 3 7 8 6 4 0 14 2 24 6 9 4 31 6 50 3 30 -3 29 -4 -9 -5
-58 -3 -54 -20 5 -25 29 -2 20 -4 -25 -3 -40 0 -75 -3 -78 -6 -4 -3 32 -6 79
-7 52 -1 86 3 86 9 0 17 -5 25 -12 23 -5 -2 -8 1 -8 5 0 11 22 32 34 32 6 0 5
-5 -2 -12 -9 -9 -7 -14 6 -24 10 -8 12 -13 5 -14 -7 0 -13 -5 -13 -10 0 -19
39 14 51 43 10 23 10 34 1 48 -10 15 -9 19 3 19 25 0 17 30 -11 40 -32 13 -43
13 -24 0 13 -8 12 -10 -3 -10 -10 0 -16 -4 -12 -9 6 -10 -14 -60 -30 -76 -5
-5 -36 -10 -67 -10 -52 0 -57 2 -61 25 -3 14 -3 41 -1 59 4 32 3 33 -10 16
-11 -15 -11 -22 -3 -27 8 -5 6 -8 -6 -8 -15 0 -16 -3 -5 -22 19 -36 18 -64 -4
-64 -18 0 -18 1 -2 13 16 12 16 13 1 13 -9 0 -17 4 -17 10 0 5 8 7 18 4 16 -5
16 -5 0 5 -11 7 -15 20 -12 35 5 28 -13 45 -22 22 -10 -25 -25 -18 -20 9 5 28
2 29 -37 8z m317 -28 c-12 -9 -15 -18 -9 -22 11 -9 12 -30 0 -55 -10 -24 -25
-13 -18 12 3 11 0 20 -6 20 -6 0 -11 5 -11 11 0 8 5 8 15 -1 18 -15 20 1 3 18
-9 9 -9 12 1 12 7 0 9 5 6 10 -3 6 4 10 16 10 22 0 22 0 3 -15z m-370 -56 c-4
-8 1 -9 17 -5 20 6 21 5 6 -4 -18 -11 -37 -6 -37 11 0 5 5 9 11 9 5 0 7 -5 3
-11z"/>
<path d="M4245 3730 c-3 -6 1 -7 9 -4 9 3 16 1 16 -6 0 -6 5 -8 11 -4 8 4 7 9
-2 15 -18 11 -26 11 -34 -1z"/>
<path d="M4316 3729 c2 -4 -3 -9 -11 -13 -8 -3 -15 -13 -15 -23 1 -17 1 -17
14 -1 7 10 17 14 21 10 5 -4 5 -1 1 6 -4 7 -1 12 9 12 9 0 13 -5 9 -11 -4 -7
1 -7 16 1 12 6 19 14 17 17 -8 8 -66 10 -61 2z"/>
<path d="M5216 3721 c-4 -5 0 -11 6 -14 7 -2 9 -8 5 -13 -5 -5 -15 -1 -23 10
-12 17 -14 18 -14 3 0 -9 5 -17 10 -17 6 0 10 -6 9 -12 -3 -26 1 -43 9 -32 4
5 23 15 42 20 l35 10 -30 15 c-16 9 -29 21 -27 27 2 14 -14 16 -22 3z m34 -41
c0 -5 -4 -10 -10 -10 -5 0 -10 5 -10 10 0 6 5 10 10 10 6 0 10 -4 10 -10z"/>
<path d="M5969 3728 c-1 -5 -2 -11 -3 -15 -1 -5 -5 -14 -9 -20 -5 -7 -5 -13
-1 -13 3 0 1 -6 -5 -14 -9 -10 -8 -15 4 -19 15 -6 10 -37 -6 -37 -4 0 -6 7 -3
15 8 20 -10 19 -26 0 -7 -9 -20 -13 -29 -10 -9 2 -22 1 -30 -4 -9 -6 -4 -9 15
-9 16 0 35 5 43 12 12 9 13 8 8 -6 -10 -28 29 -44 54 -22 10 9 16 20 14 25 -3
4 3 12 12 18 10 6 14 11 9 11 -5 0 -4 6 2 13 5 6 12 23 14 37 2 21 -1 25 -22
24 -14 -1 -28 4 -32 10 -4 6 -8 8 -9 4z m43 -29 c-13 -5 -26 -18 -29 -29 -3
-11 -9 -20 -14 -20 -12 0 -11 17 1 25 6 4 8 10 5 15 -5 8 16 17 45 18 8 0 4
-3 -8 -9z m8 -13 c0 -10 -53 -106 -59 -106 -3 0 -13 5 -21 11 -13 10 -13 10 1
6 10 -3 22 7 35 31 10 19 20 39 20 44 1 4 2 10 3 13 1 6 21 7 21 1z"/>
<path d="M4237 3703 c-8 -8 12 -33 26 -33 6 0 2 7 -9 16 -18 14 -18 15 6 9 19
-5 22 -4 10 4 -18 13 -24 13 -33 4z"/>
<path d="M11300 3692 c0 -4 9 -8 20 -8 11 0 20 4 20 8 0 4 -9 8 -20 8 -11 0
-20 -4 -20 -8z"/>
<path d="M1155 3659 c-4 -5 -12 -8 -19 -6 -6 2 -20 1 -31 -4 -16 -6 -13 -8 15
-8 39 -1 69 13 52 23 -6 3 -14 1 -17 -5z"/>
<path d="M1198 3663 c7 -3 16 -2 19 1 4 3 -2 6 -13 5 -11 0 -14 -3 -6 -6z"/>
<path d="M10170 3660 c0 -5 5 -10 11 -10 5 0 7 5 4 10 -3 6 -8 10 -11 10 -2 0
-4 -4 -4 -10z"/>
<path d="M8013 3641 c-1 -14 3 -18 13 -14 16 6 14 25 -2 30 -5 2 -10 -6 -11
-16z"/>
<path d="M11970 3650 c0 -5 5 -10 10 -10 6 0 10 5 10 10 0 6 -4 10 -10 10 -5
0 -10 -4 -10 -10z"/>
<path d="M10736 3641 c-4 -7 -5 -15 -2 -18 9 -9 19 4 14 18 -4 11 -6 11 -12 0z"/>
<path d="M11375 3640 c-18 -8 -18 -9 5 -9 14 0 34 4 45 9 18 8 18 9 -5 9 -14
0 -34 -4 -45 -9z"/>
<path d="M3506 3631 c-8 -12 19 -21 65 -21 28 0 39 4 39 15 0 11 -12 15 -49
15 -28 0 -52 -4 -55 -9z"/>
<path d="M6815 3630 c3 -5 11 -10 16 -10 6 0 7 5 4 10 -3 6 -11 10 -16 10 -6
0 -7 -4 -4 -10z"/>
<path d="M10170 3628 c0 -4 7 -8 15 -8 8 0 15 4 15 8 0 5 -7 9 -15 9 -8 0 -15
-4 -15 -9z"/>
<path d="M2619 3621 c11 -7 11 -9 0 -14 -10 -4 -10 -6 -1 -6 6 -1 12 -8 12
-16 0 -13 2 -14 14 -3 12 11 12 15 -1 31 -9 9 -21 17 -27 17 -6 0 -5 -4 3 -9z"/>
<path d="M4608 3624 c-4 -3 -75 -6 -159 -7 -141 -2 -154 -4 -157 -21 -2 -10 1
-23 8 -30 9 -8 10 -5 5 14 l-6 25 152 -2 c99 -2 157 1 166 8 7 7 13 7 13 2 0
-5 7 -10 15 -10 11 0 12 4 4 14 -12 14 -32 17 -41 7z"/>
<path d="M1060 3606 c0 -2 9 -6 20 -9 11 -3 18 -1 14 4 -5 9 -34 13 -34 5z"/>
<path d="M1240 3538 c-1 -5 -3 -14 -4 -20 0 -7 -9 -14 -18 -16 -12 -2 -16 1
-13 11 5 11 -14 14 -112 13 -65 -1 -124 -5 -132 -10 -9 -6 -12 -5 -8 0 3 6
-10 11 -31 11 -36 1 -36 1 -12 -13 15 -8 19 -13 10 -14 -12 0 -12 -2 -2 -9 11
-7 10 -10 -3 -15 -25 -9 -43 -6 -20 4 l20 9 -20 1 -20 1 20 9 c17 7 17 9 3 9
-10 1 -18 6 -18 12 0 14 -132 9 -143 -6 -6 -7 -10 -6 -14 3 -5 13 -89 17 -97
4 -3 -5 -42 -7 -88 -6 l-83 2 65 -8 c36 -4 107 -6 159 -5 60 2 89 0 80 -6 -11
-7 -10 -9 6 -10 l20 0 -20 -9 c-28 -12 -56 -11 -30 1 16 7 14 8 -9 4 -33 -7
-251 13 -281 25 -26 11 -56 9 -48 -3 3 -5 -1 -13 -8 -18 -12 -7 -11 -9 1 -9
12 0 12 -2 2 -9 -11 -7 -10 -9 3 -14 9 -4 13 -3 10 3 -3 6 1 10 9 10 8 0 18
-4 21 -10 3 -5 35 -10 71 -10 41 0 63 4 59 10 -8 13 -3 13 30 0 15 -6 32 -7
38 -3 7 5 100 9 207 9 135 1 195 5 198 13 2 6 11 11 20 12 14 0 13 2 -3 10
-17 8 -17 9 5 4 14 -2 29 -5 33 -5 5 0 5 -4 2 -10 -3 -5 -15 -10 -26 -10 -10
0 -19 -4 -19 -9 0 -4 49 -8 110 -8 60 0 108 3 106 6 -3 4 128 6 290 5 169 0
294 3 294 8 0 5 7 16 15 25 8 8 12 19 9 25 -4 7 -10 4 -16 -6 -6 -11 -24 -16
-56 -18 l-47 -1 45 -7 45 -7 -40 -1 c-47 -2 -77 11 -50 22 9 3 34 6 56 6 21 0
39 5 39 11 0 11 -234 4 -253 -8 -6 -3 -7 -2 -4 4 4 6 -26 9 -76 10 l-82 0 60
-8 c84 -12 93 -19 15 -12 -36 3 -69 8 -75 12 -5 3 -45 6 -88 6 -57 0 -76 -3
-72 -12 2 -7 -2 -13 -10 -13 -7 0 -16 8 -18 18 -3 9 -6 14 -7 10z m195 -34
c13 -13 29 -15 78 -11 40 3 51 3 32 -3 -52 -13 -112 -11 -118 4 -3 8 -21 16
-39 19 l-33 4 32 1 c18 1 39 -5 48 -14z m-170 -14 c-27 -12 -35 -12 -35 0 0 6
12 10 28 9 24 0 25 -1 7 -9z m132 4 c-3 -3 -12 -4 -19 -1 -8 3 -5 6 6 6 11 1
17 -2 13 -5z m303 -4 c-14 -4 -43 -8 -65 -8 l-40 1 45 7 c65 10 92 10 60 0z
m-1230 -16 c0 -12 -3 -14 -12 -6 -7 5 -22 12 -33 15 -13 3 -9 5 13 6 23 1 32
-3 32 -15z m750 12 c0 -3 -4 -8 -10 -11 -5 -3 -10 -1 -10 4 0 6 5 11 10 11 6
0 10 -2 10 -4z m-593 -12 c-3 -3 -12 -4 -19 -1 -8 3 -5 6 6 6 11 1 17 -2 13
-5z"/>
<path d="M658 3493 c12 -2 32 -2 45 0 12 2 2 4 -23 4 -25 0 -35 -2 -22 -4z"/>
<path d="M1860 3479 c0 -5 5 -7 10 -4 6 3 10 8 10 11 0 2 -4 4 -10 4 -5 0 -10
-5 -10 -11z"/>
</g>
</svg>
